<svg xmlns="http://www.w3.org/2000/svg" viewBox="0 0 750 500"><g id="freepik--background-complete--inject-42"><rect x="542.34" y="393.48" width="76.02" height="84.18" transform="translate(-2.09 2.8) rotate(-0.28)" style="fill:#ebebeb"></rect><rect x="618.36" y="393.2" width="39.25" height="84.19" transform="translate(-2.09 3.08) rotate(-0.28)" style="fill:#dbdbdb"></rect><polygon points="586.69 411.64 585.08 411.65 583.87 411.66 583.17 410.26 582.21 411.66 580.88 408.79 579.65 411.68 576.1 411.69 574.47 411.7 573.88 409.78 573.33 411.71 572.28 411.71 572.19 393.52 586.6 393.45 586.69 411.64" style="fill:#fff"></polygon><path d="M655.09,471.51q-4.41-9-8.73-18l-8.61-18.07-8.49-18.15q-4.23-9.09-8.37-18.24,4.41,9,8.73,18l8.6,18.07,8.5,18.14Q650.95,462.36,655.09,471.51Z" style="fill:#ebebeb"></path><path d="M654.74,398.92q-4.07,9.19-8.2,18.32l-8.31,18.23-8.43,18.15q-4.24,9.06-8.56,18.05,4.05-9.18,8.19-18.31l8.32-18.23L646.18,417Q650.41,407.92,654.74,398.92Z" style="fill:#ebebeb"></path><rect x="550.95" y="309.21" width="76.02" height="84.18" transform="translate(-1.68 2.84) rotate(-0.28)" style="fill:#ebebeb"></rect><rect x="626.97" y="308.94" width="39.25" height="84.19" transform="translate(-1.68 3.12) rotate(-0.28)" style="fill:#dbdbdb"></rect><polygon points="595.3 327.38 593.69 327.39 592.48 327.39 591.78 326 590.82 327.4 589.5 324.52 588.26 327.42 584.71 327.43 583.08 327.44 582.49 325.52 581.94 327.44 580.89 327.45 580.8 309.26 595.21 309.19 595.3 327.38" style="fill:#fff"></polygon><path d="M663.7,387.25q-4.41-9-8.73-18l-8.61-18.06-8.49-18.15q-4.23-9.09-8.37-18.24,4.41,9,8.73,18l8.6,18.06,8.5,18.15Q659.56,378.1,663.7,387.25Z" style="fill:#ebebeb"></path><path d="M663.35,314.66q-4.07,9.18-8.2,18.32l-8.31,18.23-8.43,18.14q-4.24,9.06-8.56,18.06,4-9.18,8.19-18.32l8.32-18.22,8.43-18.15Q659,323.66,663.35,314.66Z" style="fill:#ebebeb"></path><polygon points="538.22 327.67 614.23 327.3 626.76 309.03 550.75 309.4 538.22 327.67" style="fill:#dbdbdb"></polygon><polygon points="639.47 327.19 678.61 327 665.9 308.85 626.76 309.04 639.47 327.19" style="fill:#ebebeb"></polygon><rect x="104.05" y="399.2" width="70.86" height="78.46" transform="translate(-2.11 0.68) rotate(-0.28)" style="fill:#ebebeb"></rect><rect x="174.9" y="398.94" width="36.59" height="78.47" transform="translate(-2.11 0.94) rotate(-0.28)" style="fill:#dbdbdb"></rect><polygon points="145.38 416.13 143.88 416.14 142.76 416.14 142.11 414.84 141.21 416.15 139.97 413.47 138.83 416.16 135.51 416.18 134 416.19 133.44 414.39 132.94 416.19 131.95 416.19 131.87 399.24 145.3 399.17 145.38 416.13" style="fill:#fff"></polygon><path d="M209.13,471.93Q205,463.58,201,455.18l-8-16.84-7.92-16.92q-3.94-8.46-7.8-17,4.11,8.34,8.14,16.75l8,16.84,7.91,16.91Q205.28,463.41,209.13,471.93Z" style="fill:#ebebeb"></path><path d="M208.81,404.27q-3.78,8.57-7.64,17.08l-7.75,17-7.86,16.92q-3.94,8.44-8,16.83,3.78-8.56,7.63-17.07L193,438l7.85-16.92Q204.78,412.67,208.81,404.27Z" style="fill:#ebebeb"></path><polygon points="92.18 416.4 163.03 416.06 174.71 399.03 103.86 399.37 92.18 416.4" style="fill:#dbdbdb"></polygon><polygon points="186.55 415.95 223.03 415.77 211.19 398.86 174.71 399.03 186.55 415.95" style="fill:#ebebeb"></polygon><rect y="46.97" width="750" height="8.86" style="fill:#ebebeb"></rect><rect y="86.58" width="750" height="8.86" style="fill:#ebebeb"></rect><rect x="103.54" y="55.83" width="14.13" height="30.75" style="fill:#ebebeb"></rect><rect x="279.8" y="55.83" width="14.13" height="30.75" style="fill:#ebebeb"></rect><rect x="456.07" y="55.83" width="14.13" height="30.75" style="fill:#ebebeb"></rect><rect x="632.33" y="55.83" width="14.13" height="30.75" style="fill:#ebebeb"></rect><polygon points="198.74 88.07 171.71 58.01 144.69 88.07 115.83 56.08 117.32 54.74 144.69 85.08 171.71 55.01 198.74 85.08 225.76 55.01 252.78 85.08 280.78 54.12 282.27 55.46 252.78 88.07 225.76 58.01 198.74 88.07" style="fill:#ebebeb"></polygon><polygon points="374.69 88.07 347.67 58.01 320.64 88.07 291.78 56.08 293.27 54.74 320.64 85.08 347.67 55.01 374.69 85.08 401.71 55.01 428.73 85.08 456.73 54.12 458.22 55.46 428.73 88.07 401.71 58.01 374.69 88.07" style="fill:#ebebeb"></polygon><polygon points="550.64 88.07 523.62 58.01 496.6 88.07 467.73 56.08 469.22 54.74 496.59 85.08 523.62 55.01 550.64 85.08 577.66 55.01 604.68 85.08 632.68 54.12 634.17 55.46 604.68 88.07 577.66 58.01 550.64 88.07" style="fill:#ebebeb"></polygon><polygon points="750 59.03 750 62.03 727.93 86.58 726.59 88.07 725.25 86.58 699.57 58.01 673.89 86.58 672.55 88.07 671.21 86.58 646.46 59.16 643.68 56.08 643.96 55.83 645.17 54.74 646.15 55.83 646.46 56.17 672.54 85.08 698.83 55.83 699.57 55.01 700.31 55.83 726.59 85.08 750 59.03" style="fill:#ebebeb"></polygon><polygon points="106.3 55.46 105.97 55.83 103.54 58.51 78.16 86.58 76.81 88.07 75.47 86.58 49.79 58.01 24.11 86.58 22.77 88.07 21.43 86.58 0 62.74 0 59.74 22.77 85.08 49.05 55.83 49.79 55.01 50.53 55.83 76.82 85.08 103.27 55.83 104.82 54.12 106.3 55.46" style="fill:#ebebeb"></polygon></g><g id="freepik--Floor--inject-42"><path d="M54.34,477.85c205.43-.61,435.89-.62,641.32,0-205.44.61-435.89.61-641.32,0Z" style="fill:#263238"></path></g><g id="freepik--Trash--inject-42"><g style="opacity:0.8"><path d="M175.81,282.54l.35-40.41-47.2-.28a7.67,7.67,0,0,1-.66,2.52.71.71,0,0,1-1.3,0,9.78,9.78,0,0,1-.76-2.55h-2.53a8.34,8.34,0,0,1-.66,2.53.74.74,0,0,1-1.34,0,11.06,11.06,0,0,1-.72-2.54l-2.54,0a7.73,7.73,0,0,1-.66,2.53.75.75,0,0,1-1.34,0,11.31,11.31,0,0,1-.72-2.55l-2.57,0a9.35,9.35,0,0,1-.63,2.54.75.75,0,0,1-1.34,0,15.61,15.61,0,0,1-.75-2.54l-10.67-.09C96,241.55,81.9,256,81.9,256l-2.91,0-.1,11.26,2.91,0S95.35,282,99.41,282l10.67.09a13.47,13.47,0,0,1,.81-2.53.61.61,0,0,1,.24-.28.73.73,0,0,1,.93.08.38.38,0,0,1,.16.21,9.41,9.41,0,0,1,.58,2.54l2.57,0a11.46,11.46,0,0,1,.74-2.43l0-.1a.75.75,0,0,1,1.34,0c0,.07,0,.13.07.2a7.81,7.81,0,0,1,.54,2.35h2.54a11.62,11.62,0,0,1,.58-2.05c.07-.18.14-.33.19-.48a.75.75,0,0,1,1.34,0,4,4,0,0,1,.22.59,8,8,0,0,1,.39,1.95l2.53,0a10.13,10.13,0,0,1,.46-1.71c.12-.3.24-.58.35-.81a.71.71,0,0,1,1.3,0,6,6,0,0,1,.34,1,7.76,7.76,0,0,1,.27,1.59l24.48.21h0Z" style="fill:#fff"></path><path d="M175.81,282.54c0,.09.08-41,.35-40.28L129,242l.19-.17a8.52,8.52,0,0,1-.35,1.74c-.19.57-.41,1.44-1.18,1.37a.91.91,0,0,1-.82-.6,10,10,0,0,1-.75-2.53l.19.17h-2.53l.19-.18c-.17.92-.3,3.11-1.55,3.12a1,1,0,0,1-.84-.6,11.31,11.31,0,0,1-.72-2.54l.19.17h-2.53l.2-.19a8.25,8.25,0,0,1-.66,2.58,1,1,0,0,1-1.75,0l-.3-.83a9.19,9.19,0,0,1-.42-1.72l.21.19-2.58,0,.22-.19a9.34,9.34,0,0,1-.63,2.59,1,1,0,0,1-1.77-.06,15,15,0,0,1-.75-2.53l.21.18-10.56-.08c-2,.23-3.71,1.81-5.34,3A144.12,144.12,0,0,0,82,256.2h-.1l-2.9,0,.23-.23-.11,11.25-.22-.22,2.91,0c.11,0,.09,0,.16.07,1.91,2.06,3.88,4.09,5.9,6.06,3,2.89,6.09,5.91,9.72,8a4.32,4.32,0,0,0,1.91.63l2.12,0,8.47.08-.18.14a16.24,16.24,0,0,1,.82-2.56.92.92,0,0,1,.67-.5c1-.14,1.14.9,1.34,1.66a8.78,8.78,0,0,1,.24,1.45l-.17-.16,2.57,0-.17.14a11.76,11.76,0,0,1,.75-2.46.91.91,0,0,1,1.68-.09,8.25,8.25,0,0,1,.62,2.59l-.16-.14h2.54l-.16.13a13,13,0,0,1,.79-2.55.89.89,0,0,1,1.58-.05,7.81,7.81,0,0,1,.65,2.65l-.14-.14,2.53,0-.14.12.46-1.7.34-.8a.85.85,0,0,1,.79-.55c.76,0,.9.84,1.09,1.37a7.24,7.24,0,0,1,.32,1.73l-.13-.13c11.74.15,35.45.37,47.2.42Zm0,0c-11.78,0-35.43,0-47.21-.14h-.12a7.33,7.33,0,0,0-.33-1.79c-.18-.41-.22-1.2-.81-1.17s-.68.82-.87,1.17l-.44,1.65,0,.12h-2.78a8,8,0,0,0-.63-2.67.55.55,0,0,0-.32-.26.59.59,0,0,0-.72.29,11.86,11.86,0,0,0-.78,2.62h-2.82a8,8,0,0,0-.61-2.63.56.56,0,0,0-.55-.33.54.54,0,0,0-.51.39,10.85,10.85,0,0,0-.76,2.55h-.14l-2.57,0h-.16a7,7,0,0,0-.69-2.78.56.56,0,0,0-.91.14,14.66,14.66,0,0,0-.82,2.63h-.15l-10.58-.08c-2.2-.23-3.9-1.85-5.6-3.09-2.21-1.77-4.29-3.7-6.32-5.67-1.82-1.82-4.59-4.43-5.78-6l-2.9,0h-.22v-.22l.09-11.26v-.23H81.9l-.17.08c5-4.91,10-10.11,16-13.79a4.64,4.64,0,0,1,2.1-.66l2.12,0,8.45.08h.18a14.46,14.46,0,0,0,.76,2.64.53.53,0,0,0,1,0,9.3,9.3,0,0,0,.62-2.65h.2l2.57,0h.18l0,.18a11.18,11.18,0,0,0,.69,2.45c1.08,1.45,1.6-1.9,1.63-2.59h.19l2.54,0h.17a11.09,11.09,0,0,0,.72,2.62c1.1,1.46,1.61-1.88,1.65-2.58h2.88l0,.17a9.13,9.13,0,0,0,.72,2.44.52.52,0,0,0,.49.37.5.5,0,0,0,.5-.32,7.72,7.72,0,0,0,.66-2.62H129l47.19.35c.39-.15-.48,40.41-.35,40.53Z" style="fill:#263238"></path></g><path d="M104.67,278.52l44.18.38,23.39.11.28-33.28-67.08-.48c1,2.82-.49,28-1,33.24A.51.51,0,0,0,104.67,278.52Z" style="fill:#ebebeb;opacity:0.8"></path><rect x="66.71" y="257.21" width="16.17" height="8.31" rx="0.51" transform="translate(336.8 188.88) rotate(90.51)" style="fill:#FF7C27"></rect><path d="M132.82,241.87l-.42,40.42-3.8,0a7,7,0,0,0-.27-1.59,7.18,7.18,0,0,0-.33-1,.72.72,0,0,0-1.31,0c-.11.23-.23.51-.35.81a9.28,9.28,0,0,0-.45,1.71l-2.54,0a7.66,7.66,0,0,0-.39-1.95,4,4,0,0,0-.22-.59.75.75,0,0,0-1.34,0c-.06.15-.12.3-.18.48a10.81,10.81,0,0,0-.59,2.05l-2.54,0a7.75,7.75,0,0,0-.54-2.34c0-.08,0-.13-.07-.2a.75.75,0,0,0-1.34,0l0,.09a11.17,11.17,0,0,0-.74,2.44l-2.57,0a9.24,9.24,0,0,0-.58-2.53.35.35,0,0,0-.17-.22.73.73,0,0,0-.92-.09.7.7,0,0,0-.24.29,14.2,14.2,0,0,0-.82,2.53l-4,0,.41-40.41,4,0a15.31,15.31,0,0,0,.75,2.54.75.75,0,0,0,1.34,0,9.53,9.53,0,0,0,.63-2.54l2.57,0a12.46,12.46,0,0,0,.72,2.55.75.75,0,0,0,1.34,0,7.91,7.91,0,0,0,.66-2.53l2.53,0a11.72,11.72,0,0,0,.73,2.54.74.74,0,0,0,1.33,0,7.55,7.55,0,0,0,.66-2.53l2.54,0a9.82,9.82,0,0,0,.76,2.54.72.72,0,0,0,1.3,0,7.8,7.8,0,0,0,.66-2.53Z" style="fill:#FF7C27"></path><path d="M132.82,241.87l-.42,40.42-3.8,0a7,7,0,0,0-.27-1.59,7.18,7.18,0,0,0-.33-1,.72.72,0,0,0-1.31,0c-.11.23-.23.51-.35.81a9.28,9.28,0,0,0-.45,1.71l-2.54,0a7.66,7.66,0,0,0-.39-1.95,4,4,0,0,0-.22-.59.75.75,0,0,0-1.34,0c-.06.15-.12.3-.18.48a10.81,10.81,0,0,0-.59,2.05l-2.54,0a7.75,7.75,0,0,0-.54-2.34c0-.08,0-.13-.07-.2a.75.75,0,0,0-1.34,0l0,.09a11.17,11.17,0,0,0-.74,2.44l-2.57,0a9.24,9.24,0,0,0-.58-2.53.35.35,0,0,0-.17-.22.73.73,0,0,0-.92-.09.7.7,0,0,0-.24.29,14.2,14.2,0,0,0-.82,2.53l-4,0,.41-40.41,4,0a15.31,15.31,0,0,0,.75,2.54.75.75,0,0,0,1.34,0,9.53,9.53,0,0,0,.63-2.54l2.57,0a12.46,12.46,0,0,0,.72,2.55.75.75,0,0,0,1.34,0,7.91,7.91,0,0,0,.66-2.53l2.53,0a11.72,11.72,0,0,0,.73,2.54.74.74,0,0,0,1.33,0,7.55,7.55,0,0,0,.66-2.53l2.54,0a9.82,9.82,0,0,0,.76,2.54.72.72,0,0,0,1.3,0,7.8,7.8,0,0,0,.66-2.53Z" style="fill:#fff;opacity:0.6000000000000001"></path><path d="M199.31,247.37c-15.32,11.33-3.19,33.05,0,35.12,1,.64,8.15,1.05,17.23,1.26,1.06,0,1.54-4.53,2.65-4.5,1.57,0,3.86,4.62,5.51,4.63,1,0,.06-3,1.1-3,.83,0,3.6,3,4.45,3h1.33c8.32,0,16.38-.23,21.51-.58,3.2-.24,5.22-.54,5.5-.92,8.8-12.73-1.62-39.19-5.36-40.16-.28-.07-6.52.38-14.65,1-1.64.13-4.76,2.91-6.53,3-2.4.21-3.49-2.2-6-2-2.08.16-3.29,3-5.29,3.19-.86.07-2.56-2.5-3.37-2.42l-2.73.26c-5.7.57-10.52,1.1-13.17,1.54A8.06,8.06,0,0,0,199.31,247.37Z" style="fill:#455a64"></path><path d="M257.81,280.1c-1.85.29-5.76-7.83-7.38-16.82-1.7-9.4-1-19.68,2.64-19.22,2.16.27,5.69,9.93,6.75,19C260.82,271.74,259.44,279.84,257.81,280.1Z" style="fill:#ebebeb"></path><path d="M201.49,246.85c15.44,6.28,20.85,23.83,30.06,37,8.32,0,16.38-.23,21.51-.58-15.89-2.07-24.24-13.42-31.9-27.31a99,99,0,0,0-6.5-10.67C209,245.88,204.14,246.41,201.49,246.85Z" style="opacity:0.1"></path><path d="M191.43,282.81H157.07c-1.63,0,0-51.9,0-57.68s9.93-20.77,9.93-24V174.47h14.49v26.62c0,3.27,9.94,18.27,9.94,24S193.05,282.81,191.43,282.81Z" style="fill:#fff"></path><path d="M191.43,282.81l-27.17.07c-1.63,0-5.48,0-7.08,0-.38,0-.42-.45-.49-.73a91.11,91.11,0,0,1-.46-10.19c-.07-9.06.08-18.11.23-27.17l.34-18.11a13.7,13.7,0,0,1,.55-4.54c2.19-7.22,6.89-13.48,9.25-20.58l.08-.5v-.57c0-8.63-.06-17.41,0-26v-.35H167l14.49,0h.31v.3c0,4.72-.05,16.21-.06,20.73v5.18c0,2.87,1.84,5.33,3,7.91a125.08,125.08,0,0,1,5.89,12.51,13.63,13.63,0,0,1,1,5.11c.1,10.57.7,32.85.6,43.18,0,4,0,8.07-.34,12.08a9.23,9.23,0,0,1-.21,1.28c0,.13-.07.3-.21.36Zm0,0c.38-.35.3-1.15.41-1.64.32-4,.26-8.05.27-12.08,0-10.7-.68-33.12-.85-44a15.17,15.17,0,0,0-1-4.13,126.54,126.54,0,0,0-5.95-12.44c-1.15-2.57-3-5.17-3.07-8.1v-1.72c0-6.33-.06-17.78-.07-24.19l.31.31-14.49,0,.35-.35q0,9.06,0,18.12c0,2.16,0,5.82,0,7.92s-1.05,3.76-1.8,5.46c-2,4.07-4.22,8-6.06,12.15-1.2,2.76-2.38,5.54-2.17,8.59-.3,14.24-.86,31.14-.82,45.27.12,3.54-.18,7.2.55,10.67,0,.1.27,0,.44.06l6.79,0,27.17.08Z" style="fill:#263238"></path><path d="M188.9,279.49H159.6c-1.39,0,0-48.91,0-53.85s9.64-20,9.64-22.83v-12.2h10v12.2c0,2.8,9.64,17.92,9.64,22.83S190.28,279.49,188.9,279.49Z" style="fill:#FF7C27"></path><g style="opacity:0.1"><path d="M187.3,243.43a1.55,1.55,0,1,0,.1,2.19A1.55,1.55,0,0,0,187.3,243.43Z"></path><path d="M178.63,208.34a1.55,1.55,0,1,0,.1,2.18A1.55,1.55,0,0,0,178.63,208.34Z"></path><path d="M187.5,238.07a1.08,1.08,0,0,0-1.54.07,1.09,1.09,0,1,0,1.54-.07Z"></path><path d="M171.92,273.09a1.09,1.09,0,1,0-1.47,1.62,1.09,1.09,0,0,0,1.47-1.62Z"></path><path d="M164.57,227.83a1.09,1.09,0,0,0-1.54.07,1.09,1.09,0,1,0,1.62,1.47A1.09,1.09,0,0,0,164.57,227.83Z"></path><path d="M182.28,244.29a.77.77,0,1,0,.06,1.09A.77.77,0,0,0,182.28,244.29Z"></path><path d="M168.81,270.58a.78.78,0,1,0,.05,1.1A.77.77,0,0,0,168.81,270.58Z"></path></g><rect x="165.77" y="170.93" width="16.96" height="3.55" style="fill:#fff"></rect><path d="M182.73,170.93c-5.66.17-11.34.33-17,.35l.35-.35,0,3.54-.37-.37c5,0,12,.07,17,.24l-.14.13.14-3.54Zm0,0,.13,3.54v.13c-2.87.1-5.74.14-8.61.19l-8.48.06h-.38v-.38c0-.21,0-3.82,0-3.9h.35c5.55,0,11.48.17,17,.35Z" style="fill:#263238"></path><rect x="165.77" y="166.81" width="16.96" height="3.55" style="fill:#fff"></rect><path d="M182.73,166.81c-5.66.18-11.34.34-17,.36l.35-.36,0,3.55-.37-.37c5,0,12,.07,17,.24l-.14.13.14-3.55Zm0,0,.13,3.55v.13c-2.87.1-5.74.13-8.61.19l-8.48,0h-.38v-.38c0-.21,0-3.82,0-3.9h.35c5.55,0,11.48.18,17,.35Z" style="fill:#263238"></path><ellipse cx="171.88" cy="250.07" rx="10.65" ry="16.89" style="fill:#fff"></ellipse><rect x="167" y="193.71" width="14.5" height="6.81" style="fill:#455a64"></rect><rect x="156.58" y="244.58" width="35.34" height="10.98" style="fill:#455a64"></rect></g><g id="freepik--conveyor-belt--inject-42"><rect x="81.44" y="314.66" width="34.16" height="163.18" style="fill:#455a64"></rect><rect x="78.4" y="314.66" width="40.3" height="13.23" style="fill:#37474f"></rect><rect x="78.4" y="464.61" width="40.3" height="13.23" style="fill:#37474f"></rect><rect x="244.87" y="314.66" width="34.16" height="163.18" style="fill:#455a64"></rect><rect x="241.84" y="314.66" width="40.3" height="13.23" style="fill:#37474f"></rect><rect x="241.84" y="464.61" width="40.3" height="13.23" style="fill:#37474f"></rect><path d="M332.7,285.82v28.84H70.58a14.42,14.42,0,1,1,0-28.84Z" style="fill:#455a64"></path><path d="M70.58,284a16.24,16.24,0,1,0,0,32.48H332.7v-3.64H70.58a12.61,12.61,0,1,1,0-25.21H332.7V284Z" style="fill:#37474f"></path><polygon points="333.7 317.48 326.2 317.48 326.2 315.48 331.7 315.48 331.7 309.98 333.7 309.98 333.7 317.48" style="fill:#FF7C27"></polygon><polygon points="333.7 290.5 331.7 290.5 331.7 285 326.2 285 326.2 283 333.7 283 333.7 290.5" style="fill:#FF7C27"></polygon><path d="M70.55,317.48a17.29,17.29,0,0,1-1.9-.11l.23-2a13.85,13.85,0,0,0,1.7.1h11.3v2H70.55Zm253.6,0H311v-2h13.12Zm-15.14,0H295.89v-2H309Zm-15.14,0H280.74v-2h13.13Zm-15.14,0H265.6v-2h13.13Zm-15.15,0H250.46v-2h13.12Zm-15.14,0H235.32v-2h13.12Zm-15.14,0H220.18v-2H233.3Zm-15.14,0H205v-2h13.12Zm-15.14,0H189.89v-2H203Zm-15.14,0H174.75v-2h13.13Zm-15.15,0H159.61v-2h13.12Zm-15.14,0H144.47v-2h13.12Zm-15.14,0H129.33v-2h13.12Zm-15.14,0H114.19v-2h13.12Zm-15.14,0H99v-2h13.13Zm-15.14,0H83.9v-2H97ZM66.55,317a17.32,17.32,0,0,1-10.88-8.09l1.73-1A15.31,15.31,0,0,0,67,315.06ZM54.71,307a17.35,17.35,0,0,1,0-13.56l1.84.79a15.07,15.07,0,0,0-1.23,6,15.24,15.24,0,0,0,1.21,6Zm2.71-14.46-1.73-1a17.36,17.36,0,0,1,10.89-8.07l.46,2A15.31,15.31,0,0,0,57.42,292.54Zm11.49-7.45-.22-2a17,17,0,0,1,1.89-.1H81.92v2H70.58A15.43,15.43,0,0,0,68.91,285.09ZM324.19,285H311.06v-2h13.13ZM309,285H295.92v-2H309Zm-15.14,0H280.78v-2H293.9Zm-15.14,0H265.64v-2h13.12Zm-15.14,0H250.5v-2h13.12Zm-15.14,0H235.35v-2h13.13Zm-15.14,0H220.21v-2h13.13Zm-15.15,0H205.07v-2h13.12Zm-15.14,0H189.93v-2h13.12Zm-15.14,0H174.79v-2h13.12Zm-15.14,0H159.65v-2h13.12Zm-15.14,0H144.5v-2h13.13Zm-15.14,0H129.36v-2h13.13Zm-15.15,0H114.22v-2h13.12Zm-15.14,0H99.08v-2H112.2Zm-15.14,0H83.94v-2H97.06Z" style="fill:#FF7C27"></path><path d="M78.3,300.24a5,5,0,1,1-5-5A5,5,0,0,1,78.3,300.24Z" style="fill:#37474f"></path><path d="M78.31,300.24a5.15,5.15,0,0,1-.1,1h-9.9a5.22,5.22,0,0,1,0-1.93h9.9A5.13,5.13,0,0,1,78.31,300.24Z" style="fill:#455a64"></path><path d="M103.55,300.24a5,5,0,1,1-5-5A5,5,0,0,1,103.55,300.24Z" style="fill:#37474f"></path><path d="M103.55,300.24a5.15,5.15,0,0,1-.09,1h-9.9a4.71,4.71,0,0,1,0-1.93h9.9A5.12,5.12,0,0,1,103.55,300.24Z" style="fill:#455a64"></path><path d="M128.8,300.24a5,5,0,1,1-5.05-5A5,5,0,0,1,128.8,300.24Z" style="fill:#37474f"></path><path d="M128.8,300.24a5.15,5.15,0,0,1-.1,1h-9.89a4.71,4.71,0,0,1,0-1.93h9.89A5.13,5.13,0,0,1,128.8,300.24Z" style="fill:#455a64"></path><path d="M154,300.24a5,5,0,1,1-5-5A5,5,0,0,1,154,300.24Z" style="fill:#37474f"></path><path d="M154.05,300.24a5.15,5.15,0,0,1-.1,1h-9.9a5.22,5.22,0,0,1,0-1.93H154A5.13,5.13,0,0,1,154.05,300.24Z" style="fill:#455a64"></path><path d="M179.29,300.24a5,5,0,1,1-5-5A5,5,0,0,1,179.29,300.24Z" style="fill:#37474f"></path><path d="M179.29,300.24a5.15,5.15,0,0,1-.09,1h-9.9a4.71,4.71,0,0,1,0-1.93h9.9A5.12,5.12,0,0,1,179.29,300.24Z" style="fill:#455a64"></path><path d="M204.54,300.24a5,5,0,1,1-5-5A5,5,0,0,1,204.54,300.24Z" style="fill:#37474f"></path><path d="M204.54,300.24a4.43,4.43,0,0,1-.1,1h-9.89a4.71,4.71,0,0,1,0-1.93h9.89A4.41,4.41,0,0,1,204.54,300.24Z" style="fill:#455a64"></path><path d="M229.78,300.24a5,5,0,1,1-5-5A5,5,0,0,1,229.78,300.24Z" style="fill:#37474f"></path><path d="M229.79,300.24a5.15,5.15,0,0,1-.1,1h-9.9a5.22,5.22,0,0,1,0-1.93h9.9A5.13,5.13,0,0,1,229.79,300.24Z" style="fill:#455a64"></path><path d="M255,300.24a5,5,0,1,1-5-5A5,5,0,0,1,255,300.24Z" style="fill:#37474f"></path><path d="M255,300.24a5.15,5.15,0,0,1-.1,1H245a4.71,4.71,0,0,1,0-1.93h9.9A5.13,5.13,0,0,1,255,300.24Z" style="fill:#455a64"></path><path d="M280.28,300.24a5,5,0,1,1-5-5A5,5,0,0,1,280.28,300.24Z" style="fill:#37474f"></path><path d="M280.28,300.24a5.15,5.15,0,0,1-.09,1h-9.9a4.71,4.71,0,0,1,0-1.93h9.9A5.12,5.12,0,0,1,280.28,300.24Z" style="fill:#455a64"></path><path d="M305.52,300.24a5,5,0,1,1-5-5A5,5,0,0,1,305.52,300.24Z" style="fill:#37474f"></path><path d="M305.53,300.24a5.15,5.15,0,0,1-.1,1h-9.9a5.22,5.22,0,0,1,0-1.93h9.9A5.13,5.13,0,0,1,305.53,300.24Z" style="fill:#455a64"></path><polygon points="319.01 284 278.71 284 278.71 232.15 295.03 216.43 319.01 216.43 319.01 284" style="fill:#455a64"></polygon></g><g id="freepik--garbage-can--inject-42"><polygon points="436.23 204.2 503.93 211.88 511.07 175.2 445.44 156.92 436.23 204.2" style="fill:#FF7C27"></polygon><polygon points="436.23 204.2 503.93 211.88 511.07 175.2 445.44 156.92 436.23 204.2" style="opacity:0.4"></polygon><rect x="412.25" y="175.22" width="54.92" height="9.9" transform="translate(700.62 -216.98) rotate(101.02)" style="fill:#455a64"></rect><polygon points="430.32 202.49 439.38 155.97 427.93 156.56 419.93 197.64 430.32 202.49" style="fill:#37474f"></polygon><g style="opacity:0.8"><path d="M461,183l-13.55,40.77L399.89,207.8a8.45,8.45,0,0,0,.21-2.76.77.77,0,0,0-1.32-.44,10.84,10.84,0,0,0-1.64,2.3l-2.55-.86a8.46,8.46,0,0,0,.2-2.77.79.79,0,0,0-1.35-.44,12.18,12.18,0,0,0-1.6,2.31l-2.56-.86a8.22,8.22,0,0,0,.21-2.77.79.79,0,0,0-1.35-.44,12.65,12.65,0,0,0-1.61,2.31l-2.59-.86a9.5,9.5,0,0,0,.24-2.77.79.79,0,0,0-1.35-.44,15.71,15.71,0,0,0-1.64,2.29L370.44,198c-3.78-1.25-13-20.61-13-20.61l-2.93-1,3.77-11.35,2.94,1s18.7-10.16,22.8-8.8l10.76,3.58a15.16,15.16,0,0,0-.06,2.82.69.69,0,0,0,.15.37.79.79,0,0,0,1,.24.54.54,0,0,0,.24-.16,9.92,9.92,0,0,0,1.45-2.36l2.59.86a12.71,12.71,0,0,0-.09,2.71v.1a.79.79,0,0,0,1.35.45l.15-.17a8.44,8.44,0,0,0,1.34-2.18l2.56.86a11.12,11.12,0,0,0-.11,2.26c0,.2,0,.38,0,.55a.79.79,0,0,0,1.35.44,3.84,3.84,0,0,0,.43-.52,8.63,8.63,0,0,0,1.06-1.83l2.55.86a11.06,11.06,0,0,0-.12,1.87c0,.35,0,.67.07.94a.76.76,0,0,0,1.31.44,6.14,6.14,0,0,0,.67-.85,8.2,8.2,0,0,0,.82-1.5l24.7,8.21h0Z" style="fill:#fff"></path><path d="M461,183c-.17.09-13.28,41.15-13.6,40.89L399.83,208l-.16-.06a8.23,8.23,0,0,0,.24-2.84.53.53,0,0,0-.4-.51.58.58,0,0,0-.64.21,9.81,9.81,0,0,0-1.56,2.21l-.07.14-.16,0-2.56-.85-.16-.06a8.35,8.35,0,0,0,.24-2.86.58.58,0,0,0-.41-.5c-.53-.2-.91.6-1.2.9a10.06,10.06,0,0,0-1.05,1.68l-.17-.06-2.55-.86-.18-.06a8.29,8.29,0,0,0,.24-2.85.55.55,0,0,0-.41-.49c-.52-.21-.89.59-1.18.88a10.15,10.15,0,0,0-1.05,1.69l-.17-.06-2.6-.86-.19-.06a9.6,9.6,0,0,0,.29-2.87.56.56,0,0,0-.41-.48c-.52-.2-.88.61-1.16.89a13.74,13.74,0,0,0-1.1,1.67l-.18-.06L372.6,199l-2.14-.71c-2.15-1-3.29-3.19-4.62-5a124.62,124.62,0,0,1-8.51-15.65l-2.93-1-.22-.07.07-.22L358,165l.07-.21.21.07,2.94,1a118.16,118.16,0,0,1,16.18-7.56c2.13-.66,4.4-1.7,6.68-1.19l2.14.72,8.54,2.85.14.05,0,.14a15.27,15.27,0,0,0-.06,2.78.6.6,0,0,0,.31.45c.46.23.74-.05,1-.46a9.61,9.61,0,0,0,1.2-2.09l.14.05,2.6.86.13.05a12.1,12.1,0,0,0-.11,2.82.63.63,0,0,0,1.07.44,9,9,0,0,0,1.52-2.44l.13.05,2.56.86.12,0a13.49,13.49,0,0,0-.11,2.9.64.64,0,0,0,.64.55.67.67,0,0,0,.42-.16,8.53,8.53,0,0,0,1.55-2.46l.12,0,2.56.86.12,0a10.33,10.33,0,0,0-.15,1.93l.07.91a.6.6,0,0,0,.41.58c.57.25.94-.58,1.24-.9a7.76,7.76,0,0,0,.94-1.69l.12,0c11.85,3.94,35.73,12,47.54,16.08Zm0,0c-11.88-4-35.73-11.93-47.63-15.82l.17-.08a9,9,0,0,1-1.49,2.37.86.86,0,0,1-1,.26c-.74-.2-.61-1.17-.67-1.74a10.62,10.62,0,0,1,.12-1.87l.1.17-2.56-.86.18-.08a8.26,8.26,0,0,1-1.56,2.44.91.91,0,0,1-.62.24,1,1,0,0,1-.94-.81,13.06,13.06,0,0,1,.09-2.86l.1.17-2.56-.85.2-.09a8.72,8.72,0,0,1-1.52,2.4,1,1,0,0,1-1,.22.94.94,0,0,1-.59-.88,12,12,0,0,1,.09-2.73l.11.18-2.59-.86.21-.09a10,10,0,0,1-1.18,2c-.34.53-.82.87-1.46.56a.92.92,0,0,1-.49-.71,15.29,15.29,0,0,1,.05-2.87l.12.19-8.55-2.84-2.14-.71a4.64,4.64,0,0,0-2.13,0c-4.4.89-8.5,2.89-12.56,4.75-2.73,1.3-5.44,2.67-8.1,4.1l-.09,0-2.93-1,.27-.14-3.76,11.35-.14-.29,2.93,1,.09,0,.05.09A153.49,153.49,0,0,0,366.25,193c1.24,1.72,2.41,3.89,4.36,4.81,1.32.42,9.15,3.07,10.66,3.56l-.27.1a17.32,17.32,0,0,1,1.63-2.29,1,1,0,0,1,1.77.55,9.89,9.89,0,0,1-.25,2.82l-.14-.26,2.59.86-.26.11a10.4,10.4,0,0,1,1-1.58c.19-.25.38-.49.59-.73a1,1,0,0,1,1.75.54,8.62,8.62,0,0,1-.22,2.82l-.13-.24,2.55.86-.24.1a12.21,12.21,0,0,1,1.6-2.31,1,1,0,0,1,1-.3.94.94,0,0,1,.69.84,8.32,8.32,0,0,1-.22,2.81l-.12-.23,2.55.86-.23.09a10.19,10.19,0,0,1,1.63-2.28.94.94,0,0,1,1-.32.92.92,0,0,1,.67.84,8.52,8.52,0,0,1-.21,2.8c-.84-.74,47.57,16,47.43,15.78-.48.69,13.6-40.8,13.52-40.65Z" style="fill:#263238"></path></g><path d="M388.07,162.56l44.58,14.82,23.55,7.93L445,218.88l-67.65-22.59c1.95-2.51,9.15-28.34,10.46-33.78A.54.54,0,0,1,388.07,162.56Z" style="fill:#ebebeb;opacity:0.8"></path><rect x="343.52" y="165.12" width="17.19" height="8.84" rx="0.51" transform="matrix(0.32, -0.95, 0.95, 0.32, 80.22, 450.25)" style="fill:#FF7C27"></rect><path d="M403.78,209.11l13.49-40.81L413.43,167a7.88,7.88,0,0,1-.82,1.5,6.12,6.12,0,0,1-.66.85.76.76,0,0,1-1.32-.44c0-.27-.06-.59-.07-.94a10.15,10.15,0,0,1,.13-1.87l-2.56-.86a8.63,8.63,0,0,1-1.06,1.83,5.66,5.66,0,0,1-.43.52.79.79,0,0,1-1.35-.45c0-.16,0-.34,0-.54a11.89,11.89,0,0,1,.11-2.26l-2.56-.86a8.27,8.27,0,0,1-1.34,2.18l-.15.17a.79.79,0,0,1-1.35-.45v-.1a12,12,0,0,1,.09-2.7l-2.59-.87a9.65,9.65,0,0,1-1.45,2.35.39.39,0,0,1-.24.16.77.77,0,0,1-1-.23.73.73,0,0,1-.15-.37,16,16,0,0,1,.05-2.82l-4.07-1.36-13.48,40.79,4,1.34a16.44,16.44,0,0,1,1.63-2.3.8.8,0,0,1,1.35.45,9.86,9.86,0,0,1-.24,2.77l2.59.86a13.12,13.12,0,0,1,1.61-2.32.8.8,0,0,1,1.35.45,8.26,8.26,0,0,1-.21,2.77l2.56.86a12.51,12.51,0,0,1,1.6-2.31.79.79,0,0,1,1.35.44,8.22,8.22,0,0,1-.21,2.77l2.56.86a10,10,0,0,1,1.64-2.3.77.77,0,0,1,1.32.43,8.22,8.22,0,0,1-.21,2.77Z" style="fill:#FF7C27"></path><path d="M403.78,209.11l13.49-40.81L413.43,167a7.88,7.88,0,0,1-.82,1.5,6.12,6.12,0,0,1-.66.85.76.76,0,0,1-1.32-.44c0-.27-.06-.59-.07-.94a10.15,10.15,0,0,1,.13-1.87l-2.56-.86a8.63,8.63,0,0,1-1.06,1.83,5.66,5.66,0,0,1-.43.52.79.79,0,0,1-1.35-.45c0-.16,0-.34,0-.54a11.89,11.89,0,0,1,.11-2.26l-2.56-.86a8.27,8.27,0,0,1-1.34,2.18l-.15.17a.79.79,0,0,1-1.35-.45v-.1a12,12,0,0,1,.09-2.7l-2.59-.87a9.65,9.65,0,0,1-1.45,2.35.39.39,0,0,1-.24.16.77.77,0,0,1-1-.23.73.73,0,0,1-.15-.37,16,16,0,0,1,.05-2.82l-4.07-1.36-13.48,40.79,4,1.34a16.44,16.44,0,0,1,1.63-2.3.8.8,0,0,1,1.35.45,9.86,9.86,0,0,1-.24,2.77l2.59.86a13.12,13.12,0,0,1,1.61-2.32.8.8,0,0,1,1.35.45,8.26,8.26,0,0,1-.21,2.77l2.56.86a12.51,12.51,0,0,1,1.6-2.31.79.79,0,0,1,1.35.44,8.22,8.22,0,0,1-.21,2.77l2.56.86a10,10,0,0,1,1.64-2.3.77.77,0,0,1,1.32.43,8.22,8.22,0,0,1-.21,2.77Z" style="fill:#fff;opacity:0.6000000000000001"></path><path d="M314.94,185.62l10.74,16.67s9.74,15.12,10.75,16.7,54.92-35.37,60.54-39,15.88-27.08,19.06-29.13l31.5-20.29L441.38,121l-31.49,20.29c-3.18,2-28.82,1.7-34.41,5.31S313.93,184.05,314.94,185.62Z" style="fill:#455a64"></path><rect x="328.78" y="172.02" width="41.34" height="29.96" transform="translate(381.46 582.05) rotate(-122.78)" style="fill:#dbdbdb"></rect><path d="M409.88,141.32a12.45,12.45,0,0,1-4.18,1c-1.7,1.95-6,7-4,10.78,1.94,3.59,11.42,1.59,11.42,1.59h0a14.39,14.39,0,0,1,2.87-3.82l31.49-20.28L441.39,121S413.07,139.28,409.88,141.32Z" style="fill:#ebebeb"></path><path d="M405.26,148.91a1.85,1.85,0,1,0,2.2,1.41A1.85,1.85,0,0,0,405.26,148.91Z" style="fill:#455a64"></path><rect x="445.33" y="118.6" width="11.05" height="5.8" transform="translate(592.83 566.33) rotate(-122.78)" style="fill:#FF7C27"></rect><rect x="445.33" y="118.6" width="11.05" height="5.8" transform="translate(592.83 566.33) rotate(-122.78)" style="opacity:0.2"></rect><rect x="442.73" y="122.03" width="7.56" height="4.57" transform="translate(583.77 567.01) rotate(-122.78)" style="fill:#FF7C27"></rect><rect x="442.73" y="122.03" width="7.56" height="4.57" transform="translate(583.77 567.01) rotate(-122.78)" style="opacity:0.2"></rect><polygon points="445.52 120.45 449.07 127.16 450.48 126.25 446.38 119.9 445.52 120.45" style="opacity:0.2"></polygon><rect x="439.23" y="122.52" width="13.25" height="4.65" transform="translate(582.31 567.28) rotate(-122.78)" style="fill:#37474f"></rect><rect x="297.91" y="179.85" width="229.7" height="28.74" style="fill:#FF7C27"></rect><polygon points="500.26 474.34 325.25 474.34 310.02 208.59 515.49 208.59 500.26 474.34" style="fill:#FF7C27"></polygon><g id="freepik--pOLY8F.tif--inject-42"><path d="M383.72,325.69l25,0V348.8s-12.75-.05-18.85,0a12.32,12.32,0,0,1-4.68-.83,9.32,9.32,0,0,1-4.94-4.12c-.62-1.09-14-26.49-14.13-27.79a7,7,0,0,1,.87-4.6c1.26-2.14,5.83-10,5.83-10s-5-3.11-7.34-4.51l22.68.24s12.26,20.05,12.23,19.88l-8.43-5.08Z" style="fill:#fff"></path><path d="M443.37,325.69l-13.46-22.27,18.76-11s6.42,11,9.58,16.23a12.44,12.44,0,0,1,1.66,4.46,9.33,9.33,0,0,1-1.05,6.34c-.63,1.1-15.77,25.46-16.8,26.27a7,7,0,0,1-4.4,1.58l-11.56,0s-.15,5.88-.16,8.61c0,0-11.29-19.67-11.29-19.67s11.08-20.73,10.94-20.62l-.11,10.07Z" style="fill:#fff"></path><path d="M413.54,276.15l-12.9,21.43-19.2-10.18s6-11.24,8.81-16.67a12.36,12.36,0,0,1,2.92-3.75,9.29,9.29,0,0,1,5.95-2.43c1.26,0,29.95.08,31.18.54A7.05,7.05,0,0,1,434,268c1.3,2.12,6.07,9.83,6.07,9.83s5.09-3,7.42-4.38c0,0-10.84,19.93-10.84,19.93s-23.45,1.43-23.29,1.49l8.44-5.07S413.63,276.27,413.54,276.15Z" style="fill:#fff"></path></g><polygon points="310.02 208.59 310.61 218.47 514.37 227.34 515.49 208.59 310.02 208.59" style="opacity:0.1"></polygon><polygon points="357.9 477.85 321.01 477.85 318.24 426.29 357.9 426.29 357.9 477.85" style="fill:#FF7C27"></polygon><polygon points="357.9 477.85 321.01 477.85 318.24 426.29 357.9 426.29 357.9 477.85" style="opacity:0.1"></polygon><polygon points="467.61 477.85 504.5 477.85 507.28 426.29 467.61 426.29 467.61 477.85" style="fill:#FF7C27"></polygon><polygon points="467.61 477.85 504.5 477.85 507.28 426.29 467.61 426.29 467.61 477.85" style="opacity:0.1"></polygon></g><g id="freepik--speech-bubble--inject-42"><path d="M216.17,94.49a25.37,25.37,0,0,0,40.49,20.36L269.09,118l-5.18-11.57a25.37,25.37,0,1,0-47.74-12Z" style="fill:#fff"></path><path d="M216.17,94.49c.42,21.18,23.61,32.27,40.58,20l12.44,3.09-.51.6-5.21-11.55-.09-.22.11-.21a25.07,25.07,0,0,0-15.85-36c-15.67-4.28-31.55,8.1-31.47,24.32Zm0,0c.07-21.6,25.26-33.43,42-19.69,9.22,7.46,12.06,21.49,6.22,31.88v-.42l5.14,11.59.37.83-.88-.23-12.41-3.25c-15.8,12-40.27.73-40.4-20.71Z" style="fill:#263238"></path><polygon points="238.23 109.95 226.87 98.44 230.69 94.67 237.33 101.39 251.12 79.76 255.65 82.65 238.23 109.95" style="fill:#FF7C27"></polygon></g><g id="freepik--character-2--inject-42"><polygon points="443.53 477.85 450 477.85 502.2 223.01 556.92 223.01 525.39 477.85 531.77 477.85 564.03 217.41 496.95 217.41 443.53 477.85" style="fill:#FF7C27"></polygon><polygon points="443.53 477.85 450 477.85 502.2 223.01 556.92 223.01 525.39 477.85 531.77 477.85 564.03 217.41 496.95 217.41 443.53 477.85" style="opacity:0.6000000000000001"></polygon><rect x="493.87" y="211.61" width="74.37" height="6.68" transform="translate(1062.11 429.91) rotate(180)" style="fill:#FF7C27"></rect><rect x="493.87" y="211.61" width="74.37" height="6.68" transform="translate(1062.11 429.91) rotate(180)" style="opacity:0.4"></rect><polygon points="496.98 218.29 523.14 477.85 529.52 477.85 503.99 224.64 558.73 224.64 604.9 477.85 611.36 477.85 564.03 218.29 496.98 218.29" style="fill:#FF7C27"></polygon><rect x="503.77" y="274.1" width="64.68" height="6.35" style="fill:#FF7C27"></rect><rect x="514.03" y="325.56" width="64.68" height="6.35" style="fill:#FF7C27"></rect><rect x="519.07" y="377.03" width="70.58" height="6.35" style="fill:#FF7C27"></rect><rect x="522.97" y="428.5" width="75.11" height="6.35" style="fill:#FF7C27"></rect><g style="opacity:0.4"><polygon points="496.98 218.29 523.14 477.85 529.52 477.85 503.99 224.64 558.73 224.64 604.9 477.85 611.36 477.85 564.03 218.29 496.98 218.29"></polygon><rect x="503.77" y="274.1" width="64.68" height="6.35"></rect><rect x="514.03" y="325.56" width="64.68" height="6.35"></rect><rect x="519.07" y="377.03" width="70.58" height="6.35"></rect><rect x="522.97" y="428.5" width="75.11" height="6.35"></rect></g><path d="M591.27,302.46s22.34,42.08,22.35,42.11c1.3,7.94,2.3,14.94,2.48,18.6a.13.13,0,0,1,0,.06,5.62,5.62,0,0,1-.19,2.55.09.09,0,0,1,0,.06c-2.1,2-65.32,14.27-67.67,14s-1.64-7,.43-9.47,24.19-18,24.19-18l-22-42.12Z" style="fill:#ad6359"></path><path d="M609.45,336.17l4.17,8.4c1.3,7.94,2.3,14.94,2.48,18.6a.13.13,0,0,1,0,.06,11.23,11.23,0,0,1-.19,2.55.09.09,0,0,1,0,.06c-2.1,2-65.32,14.27-67.67,14s-1.64-7,.43-9.47,24.19-18,24.19-18l-4.3-8.51Z" style="fill:#fff"></path><path d="M568.94,353c4.11-1.4,9.38-1.51,13,1,.14.1,0,.3-.14.28a59.72,59.72,0,0,0-12.81-.78A.27.27,0,0,1,568.94,353Z" style="fill:#263238"></path><path d="M566.16,355.32c4.11-1.4,9.38-1.51,13,1,.15.09,0,.3-.14.27a60.33,60.33,0,0,0-12.81-.78A.27.27,0,0,1,566.16,355.32Z" style="fill:#263238"></path><path d="M563.38,357.61c4.11-1.41,9.37-1.51,13,1,.14.1,0,.3-.14.28a59.68,59.68,0,0,0-12.81-.78A.27.27,0,0,1,563.38,357.61Z" style="fill:#263238"></path><path d="M548.21,379.8c2.35.31,65.57-12,67.68-14,.81-.74-.44-10.06-2.28-21.27l-.06-.35-40.87,7.46.15.69s-22.1,15.52-24.19,18S545.85,379.49,548.21,379.8Z" style="fill:#37474f"></path><path d="M613.56,344.21l.06.36c1.82,11.21,3.09,20.53,2.27,21.27-1,.91-14.6,4-29.38,7-17.69,3.61-37,7.16-38.31,7-2.35-.31-1.62-7,.44-9.47s24.19-18,24.19-18l-.15-.69,13.63-2.49Z" style="fill:#FF7C27"></path><path d="M613.56,344.21l.06.36c1.82,11.21,3.09,20.53,2.27,21.27-1,.91-14.6,4-29.38,7-17.69,3.61-37,7.16-38.31,7-2.35-.31-1.62-7,.44-9.47s24.19-18,24.19-18l-.15-.69,13.63-2.49Z" style="opacity:0.2"></path><path d="M548.45,377.21c10.6-2.33,53.6-10.73,64.26-12.23.09,0,.1,0,0,.06-10.46,2.54-53.52,10.6-64.24,12.34C548.25,377.42,548.22,377.26,548.45,377.21Z" style="fill:#263238"></path><path d="M586.31,349.19c.14,7,.31,17.4.2,23.62-17.69,3.61-37,7.16-38.31,7-2.35-.31-1.62-7,.44-9.47s24.19-18,24.19-18l-.15-.69Z" style="opacity:0.1"></path><path d="M607.84,330.24l-45.71,9s-50.82-80-45.82-106.41c2.75-14.52,52.14-37.34,52.14-37.34l5-10h34.83s11.23,26.13,4,40.6c-6.73,13.46-45,23.55-46.4,27.85C564,259.59,607.84,330.24,607.84,330.24Z" style="fill:#37474f"></path><path d="M607.84,330.24l-45.71,9s-50.82-80-45.82-106.41c2.75-14.52,52.14-37.34,52.14-37.34l5-10h34.83s11.23,26.13,4,40.6c-6.73,13.46-45,23.55-46.4,27.85C564,259.59,607.84,330.24,607.84,330.24Z" style="fill:#37474f"></path><path d="M599.12,321.85a32.09,32.09,0,0,0-3.52.38c-1.3.15-2.6.3-3.89.49-2.49.37-5,.8-7.44,1.27-5,.94-10,1.94-14.92,3.07q-4.23,1-8.42,2a.1.1,0,0,0,0,.19c5-.76,9.93-1.64,14.9-2.49s9.92-1.71,14.83-2.76c1.41-.31,2.83-.59,4.23-.95s2.86-.56,4.2-1C599.21,322,599.22,321.85,599.12,321.85Z" style="fill:#263238"></path><path d="M565,323.39c-4.14-6.33-26.4-46.56-29.73-53.33-1.67-3.39-3.27-6.8-4.73-10.28a91.67,91.67,0,0,1-3.85-10.58c-1-3.57-1.91-7.34-1.15-10.89a15.22,15.22,0,0,1,2.11-5,27.19,27.19,0,0,1,1.59-2.27c.6-.7,1.2-1.42,1.85-2.09,5.22-5.36,11.74-9.33,18.29-13s13.47-6.8,20.32-10c1.71-.81,3.42-1.63,5.11-2.49.84-.44,1.67-.88,2.49-1.38a5.64,5.64,0,0,0,2.14-1.92,26.86,26.86,0,0,0,3-10.87A26.75,26.75,0,0,1,579.23,200a5.27,5.27,0,0,1-2.08,1.76c-.81.47-1.65.89-2.5,1.31-1.7.81-3.42,1.58-5.15,2.35-6.9,3.09-13.82,6.16-20.51,9.74a105.05,105.05,0,0,0-9.78,5.83,57.16,57.16,0,0,0-8.85,7.23c-.67.68-1.29,1.42-1.91,2.15a23,23,0,0,0-1.67,2.37,16.3,16.3,0,0,0-2.28,5.35,16.57,16.57,0,0,0-.12,5.83c.18.95.3,1.91.53,2.84s.43,1.86.71,2.77a95.06,95.06,0,0,0,3.94,10.7c1.49,3.5,3.11,6.92,4.81,10.31C537.75,277.3,560.74,317.16,565,323.39Z" style="fill:#263238"></path><path d="M565.88,253.93c-.78,2.41,6.71,16.61,15.57,32.12l-8.18,51-11.13,2.2s-50.83-80-45.83-106.41c2.75-14.52,52.14-37.34,52.14-37.34l5-10h24.13l-9.2,57.38C577.33,247.89,566.61,251.69,565.88,253.93Z" style="opacity:0.2"></path><path d="M581.56,364.84S587.74,407,587.74,407c0,8.05-.19,15.12-.62,18.76a.13.13,0,0,1,0,.06,5.62,5.62,0,0,1-.6,2.49l0,.05c-2.4,1.61-66.78,3.29-69.05,2.59s-.45-7.21,2-9.27S546.23,408,546.23,408l-5.78-42.1Z" style="fill:#ad6359"></path><path d="M542.28,408c4.29-.7,9.5.06,12.7,3.17.12.12-.05.3-.19.25a60,60,0,0,0-12.5-2.88A.27.27,0,0,1,542.28,408Z" style="fill:#263238"></path><path d="M539.16,409.76c4.29-.7,9.5.06,12.7,3.18.12.12-.05.29-.19.24a60.74,60.74,0,0,0-12.51-2.88A.27.27,0,0,1,539.16,409.76Z" style="fill:#263238"></path><path d="M536,411.56c4.28-.71,9.49.06,12.69,3.17.13.12-.05.29-.18.25A59.61,59.61,0,0,0,536,412.1.27.27,0,0,1,536,411.56Z" style="fill:#263238"></path><path d="M517.41,430.94c2.27.7,66.65-1,69.06-2.59.92-.6,1.23-10,1.27-21.36v-.36l-41.55.62,0,.7s-24.35,11.66-26.81,13.72S515.14,430.25,517.41,430.94Z" style="fill:#FF7C27"></path><path d="M517.41,430.94c2.27.7,66.65-1,69.06-2.59.92-.6,1.23-10,1.27-21.36v-.36l-41.55.62,0,.7s-24.35,11.66-26.81,13.72S515.14,430.25,517.41,430.94Z" style="opacity:0.2"></path><path d="M518.08,428.42c10.84-.54,54.64-1.73,65.4-1.45.09,0,.09.06,0,.07-10.74.78-54.54,1.61-65.4,1.56C517.85,428.6,517.85,428.44,518.08,428.42Z" style="fill:#263238"></path><path d="M588.07,230.07S569,290.31,568.61,301.39c-.29,9.43,20.69,92.72,20.69,92.72l-46.85.29s-17.22-85.2-16.47-95c1.42-18.4,17.53-68.89,29-113.88H607.2s-1.35,25.28-12.06,42.32A23,23,0,0,0,588.07,230.07Z" style="fill:#37474f"></path><path d="M583.17,384.17c-5.11-.23-36.22.11-39.41.41a.08.08,0,0,0,0,.16c5.11.4,28.06.48,39.24-.11C583.31,384.61,583.48,384.18,583.17,384.17Z" style="fill:#263238"></path><path d="M556.37,213.87c-1.72,5.75-16.56,71.12-18.79,82.63s14,84.8,14.36,85.3c.09.11.56,0,.54-.18-1.38-8.81-16.25-73.7-14.19-85.47,2-11.54,17-75.64,18.43-82.2A.18.18,0,0,0,556.37,213.87Z" style="fill:#263238"></path><path d="M576.1,231.24a43.3,43.3,0,0,0,7.19-.66,67.72,67.72,0,0,0,7-1.93,54,54,0,0,1,6.83-1.11,23.79,23.79,0,0,0,6.69-2,.09.09,0,0,1,.08.16,42.8,42.8,0,0,1-6.41,2.78c-2.3.72-4.7.82-7,1.39a60.54,60.54,0,0,1-7.17,1.65,26.09,26.09,0,0,1-7.17-.13C576,231.38,576,231.24,576.1,231.24Z" style="fill:#263238"></path><path d="M529.57,279.81c1.8-6.26,3.78-13.73,5.48-20l5-18.85L545,222.09q1.21-4.71,2.51-9.41c.88-3.13,1.67-6.29,2.82-9.33-2.59,6-4.31,12.29-6.18,18.51s-3.5,12.53-5.19,18.81-3.23,12.6-4.74,18.92S530.91,273.44,529.57,279.81Z" style="fill:#263238"></path><path d="M462.92,140.06c5.1,24.54,37.72,22,41.92,19.37,1.29-.79,5.75-9.14,11-19.87.6-1.25-4.55-4.34-3.91-5.65.88-1.86,7.64-2.06,8.56-4,.56-1.2-3.51-1.71-3-3,.46-1,5.55-2.65,6-3.68.25-.54.5-1,.74-1.58,4.55-10,8.74-19.69,11.15-26,1.48-4,2.23-6.53,1.93-7.07C527,71.08,489.65,68.94,486.44,72.88c-.24.3-3.14,8-6.87,18-.75,2,.85,7.29,0,9.48-1.07,3-4.55,2.95-5.65,6-.94,2.56,1.77,5.57.9,8.07-.39,1.06-4.39,1.68-4.74,2.69-.42,1.17-.8,2.29-1.19,3.4-2.45,7.12-4.47,13.17-5.41,16.57A10.78,10.78,0,0,0,462.92,140.06Z" style="fill:#455a64"></path><path d="M534.21,88.24c-.67,2.37-12.51,2.56-24.15-.45-12.14-3.14-24-9.63-21.48-13.73,1.51-2.43,15-1.33,26.44,2.42C525.89,80,534.81,86.15,534.21,88.24Z" style="fill:#ebebeb"></path><path d="M463.51,137.17c16-15,39.93-11.76,60.75-15.5,4.55-10,8.74-19.69,11.15-26-11.22,17.83-29.37,21.55-50.17,23a132.62,132.62,0,0,0-16.32,1.88C466.47,127.72,464.45,133.77,463.51,137.17Z" style="fill:#37474f"></path><path d="M573.31,129.79c-.16,1-4.42,7.84-9,8-1.49,0-2.08-8.08-2.08-8.08l-.18-.58-2.52-8.25,9.38-7.09,1.36-.94s.54,2.3,1.18,5.17c0,.14.06.27.1.41s.08.32.11.47c.1.43.2.86.29,1.3s.15.66.21,1,.13.7.21,1A56.09,56.09,0,0,1,573.31,129.79Z" style="fill:#ad6359"></path><path d="M571.46,118a17.31,17.31,0,0,1-9.4,11.11l-2.52-8.25,9.38-7.09,1.36-.94S570.82,115.13,571.46,118Z" style="fill:#263238"></path><path d="M578.13,109.1a2.87,2.87,0,0,0,2.28-.15c.21-.14.39-.31.6-.44a1.85,1.85,0,0,1,1.08-.22,7.47,7.47,0,0,0,1.25,0,3.35,3.35,0,0,0,3-2.16,4.15,4.15,0,0,0,4.78-2,3.49,3.49,0,0,0,.27-.7,2.52,2.52,0,0,1,.32-1,3.15,3.15,0,0,1,1-.59,3.74,3.74,0,0,0,.72-.51,1.6,1.6,0,0,0,.36-2.11,2.66,2.66,0,0,0,1.62-2.42A4.58,4.58,0,0,0,594,93.1a3.15,3.15,0,0,0-.37-4.4,2.78,2.78,0,0,0-1.31-4,4.09,4.09,0,0,0-1.46-3.58,1.86,1.86,0,0,1-.49-.63,3.12,3.12,0,0,0-.65-2.59,2.34,2.34,0,0,0-2.68-.61,4.62,4.62,0,0,0-1.6-1.57,3.13,3.13,0,0,0-3.14-.16,4.47,4.47,0,0,0-6.68-.49,3.24,3.24,0,0,0-3.33-1.31,6.2,6.2,0,0,0-3.59,2.57,2.27,2.27,0,0,0-2.91-.31,2.49,2.49,0,0,0-1,2.16,3.51,3.51,0,0,0-2.21,1.51,2.1,2.1,0,0,0,.09,2.25,3.09,3.09,0,0,0-1,5.11,3.68,3.68,0,0,0-1.74,6.54,3.29,3.29,0,0,0-1.5,3.29,4.87,4.87,0,0,0,2.68,3.44,3.28,3.28,0,0,0,.34,3.63,4.29,4.29,0,0,0,3.06,1.47,3.1,3.1,0,0,1-3.36-.83,3.47,3.47,0,0,1-.09-4.29s0,0,0,0a3.39,3.39,0,0,0-.1,4.5,3.53,3.53,0,0,0,4.27.69,3.85,3.85,0,0,0,5.71,4C572.61,112.36,577,112.56,578.13,109.1Zm12.09-29,0-.1a3.21,3.21,0,0,0-.3-.8,3.3,3.3,0,0,0-2.22-1.6c-.17,0-.51,0-.51,0l-.06-.11a2.47,2.47,0,0,1,2.67,1.07A3,3,0,0,1,590.22,80.08Zm-25.14-2h0a2.07,2.07,0,0,1,.84-1.9,2.11,2.11,0,0,1,2.71.25l0,.06a2.38,2.38,0,0,0-2.72.35A2.66,2.66,0,0,0,565.08,78.13Zm7,32.3a4.33,4.33,0,0,0,5.86-1.38h0C576.71,111.9,574.12,111.85,572.08,110.43Z" style="fill:#263238"></path><path d="M547.49,106.84c-2.8,14.87,5.73,18.37,9,18.83,2.94.42,12.9,2,17.23-12.47s-1.71-20.52-8.3-22.12S550.3,92,547.49,106.84Z" style="fill:#ad6359"></path><path d="M551.43,105.1a7.1,7.1,0,0,1-1,.21,1.7,1.7,0,0,1-1.09,0,.54.54,0,0,1-.26-.6,1.35,1.35,0,0,1,1.08-.82,2,2,0,0,1,1.41.15A.57.57,0,0,1,551.43,105.1Z" style="fill:#263238"></path><path d="M557.85,106.74a8.25,8.25,0,0,0,.93.49,1.7,1.7,0,0,0,1,.31.53.53,0,0,0,.42-.5,1.35,1.35,0,0,0-.82-1.08,1.93,1.93,0,0,0-1.39-.25A.57.57,0,0,0,557.85,106.74Z" style="fill:#263238"></path><path d="M557.18,109.48s.07.07.06.11c-.23,1-.33,2.19.52,2.71,0,0,0,.07,0,.06C556.66,112,556.8,110.4,557.18,109.48Z" style="fill:#263238"></path><path d="M558.3,108.61c1.65.2,1.12,3.49-.4,3.3S556.92,108.44,558.3,108.61Z" style="fill:#263238"></path><path d="M558.92,108.89c.25.23.48.6.82.69s.75-.19,1.07-.48c0,0,.05,0,.05,0-.09.64-.44,1.24-1.13,1.23s-1-.64-1-1.3C558.68,109,558.81,108.79,558.92,108.89Z" style="fill:#263238"></path><path d="M551.31,108.34s-.09,0-.1.08c-.12,1-.43,2.17-1.4,2.37,0,0,0,.06,0,.06C551,110.86,551.35,109.33,551.31,108.34Z" style="fill:#263238"></path><path d="M550.56,107.14c-1.62-.38-2.25,2.89-.75,3.24S551.91,107.45,550.56,107.14Z" style="fill:#263238"></path><path d="M549.83,107.22c-.29.13-.6.39-.92.35s-.55-.45-.72-.83c0,0-.05,0-.05,0-.14.62-.06,1.31.52,1.54s1-.24,1.3-.84C550,107.36,550,107.17,549.83,107.22Z" style="fill:#263238"></path><path d="M555.87,117.68c-.26.23-.51.55-.89.57a2.69,2.69,0,0,1-1.1-.29s-.06,0,0,.05a1.39,1.39,0,0,0,1.29.6,1.12,1.12,0,0,0,.84-.88A.06.06,0,0,0,555.87,117.68Z" style="fill:#263238"></path><path d="M551.91,113.58s-.35,1.51-.41,2.23c0,.07.16.12.41.16,0,0,0,0,0,0a3.45,3.45,0,0,0,3.46-1c.06-.07,0-.15-.1-.11a5.19,5.19,0,0,1-3.22.61c0-.2.69-2.57.57-2.59a6.08,6.08,0,0,0-1.67.23c.64-3.18,1.78-6.23,2.37-9.4a.1.1,0,0,0-.19-.06,52.48,52.48,0,0,0-3,10C550.07,114.08,551.61,113.67,551.91,113.58Z" style="fill:#263238"></path><path d="M552,115.71a4.27,4.27,0,0,0,1.46,1.53,1.87,1.87,0,0,0,1.12.24c.85-.09,1-.84.93-1.5a4.31,4.31,0,0,0-.22-1A5.4,5.4,0,0,1,552,115.71Z" style="fill:#263238"></path><path d="M553.46,117.24a1.87,1.87,0,0,0,1.12.24c.85-.09,1-.84.93-1.5A2,2,0,0,0,553.46,117.24Z" style="fill:#ff9abb"></path><path d="M573.19,115.16c-2.44-.21-3.21-6.53-3.21-6.53s-4.9-.78-5.36-8.09a11,11,0,0,0,1.22,6.18s-8.49-2.33-10.94-10.15c0,0,.85,3.92,2,5.45a10.22,10.22,0,0,1-4.73-4.83s-2.2,3.92-3.55,4.88c0,0,2.83-15,16.56-11.15,0,0,8.66,2,10.67,9.47S573.19,115.16,573.19,115.16Z" style="fill:#263238"></path><path d="M569.86,113s4.31-3.83,6.13-2.19-2.19,7.73-4.86,8.06a2.56,2.56,0,0,1-3-2.13Z" style="fill:#ad6359"></path><path d="M574.8,112.52a0,0,0,0,1,0,.07c-1.88.29-3.16,1.67-4.19,3.17a1.42,1.42,0,0,1,2.15.11.05.05,0,0,1-.07.08,1.58,1.58,0,0,0-1.81.14,7.82,7.82,0,0,0-1.13,1.17c-.12.13-.38,0-.28-.18l0,0C570,114.85,572.39,112.19,574.8,112.52Z" style="fill:#263238"></path><path d="M572.27,118.48c-.12.68,2.2-1.35,2.35-1.69s1.64-1.15,2.09-1.78a17.53,17.53,0,0,0,1.52-3c.12-.47,1.16-1.55,1.27-2.39s.78-8.37-3.58-14.06S567.15,89,567.15,89a31.11,31.11,0,0,0-6.75-1.2c-3.7-.24-10.13,7.66-10.17,7.84a3,3,0,0,1-.1,1.3c-.25.49-.88.95-.66,1.49s-.69,1.7-.75,2.24.06.68-.08,1,2.82-8.74,14.49-10.48C563.13,91.18,574.85,103.84,572.27,118.48Z" style="fill:#FF7C27"></path><path d="M548.67,101.56a.19.19,0,0,1,0,.1Z" style="fill:#FF7C27"></path><path d="M548.67,101.56a.17.17,0,0,1,0,.1Z" style="fill:#FF7C27"></path><path d="M555.11,92.6a1,1,0,0,1-1.84-.42h0l1-.93h0a1.09,1.09,0,0,1,.39.08A1,1,0,0,1,555.11,92.6Zm4.36-1.37a1,1,0,0,0-1.26,1.27,17.44,17.44,0,0,1,1.81-.64A1,1,0,0,0,559.47,91.23Zm-7,4.12a1,1,0,0,0-1.27.5,1,1,0,0,0,.39,1.21,18.19,18.19,0,0,1,1.32-1.31A1,1,0,0,0,552.47,95.35Zm20.16-3.28a.88.88,0,0,0-.3.38,1,1,0,0,0,1.69.92A18.1,18.1,0,0,0,572.63,92.07Zm-.38,8.07a1,1,0,0,0-1.27.49,1,1,0,0,0,1.77.77A1,1,0,0,0,572.25,100.14ZM562.85,88h0c-.57-.09-1.18-.16-1.82-.22h0a1,1,0,1,0,1.76.77A1,1,0,0,0,562.85,88Zm4.31,2.15a1,1,0,1,0,.5,1.27A1,1,0,0,0,567.16,90.17Zm2.11,5a1,1,0,1,0,.49,1.27A1,1,0,0,0,569.27,95.14Zm7,2a1,1,0,1,0,.49,1.27A1,1,0,0,0,576.28,97.17Zm-.92,7.27a1,1,0,1,0,.5,1.27A1,1,0,0,0,575.36,104.44Zm-2.2,10.66a.93.93,0,0,0-.54-.07c0,.62-.06,1.24-.13,1.87a1,1,0,0,0,.67-1.8Zm-1.26-8a.83.83,0,0,0-.21-.06c.15.56.28,1.13.4,1.72a1,1,0,0,0,.31-.39A1,1,0,0,0,571.9,107.12Zm7.05-5a1,1,0,0,0-.41,1.84.94.94,0,0,0,.77,0C579.22,103.36,579.1,102.74,579,102.11Zm-3.11,8a1,1,0,0,0-.78,1.76,1,1,0,0,0,.78-1.76Zm1.31,3.39a1,1,0,0,0,0,.79c.24-.42.5-.92.7-1.35A1,1,0,0,0,577.15,113.49Zm2.45-6.11a1,1,0,0,0-.57,1.83.86.86,0,0,0,.5.07A17.68,17.68,0,0,0,579.6,107.38Z" style="fill:#fff;opacity:0.30000000000000004"></path><path d="M574.62,116.79a11.33,11.33,0,0,0,.31-2c.06-.68.1-1.36.14-2,.06-1.36.12-2.73.12-4.09,0-.34,0-.69,0-1a4.22,4.22,0,0,0-.24-1c-.23-.64-.5-1.27-.76-1.9s-.54-1.25-.82-1.88l-.84-1.87c.65,1.21,1.26,2.43,1.83,3.68.29.62.56,1.25.79,1.9a4.17,4.17,0,0,1,.27,1c0,.35,0,.69,0,1,0,1.37-.07,2.74-.18,4.1-.06.68-.12,1.37-.21,2.05,0,.34-.09.67-.16,1A4.65,4.65,0,0,1,574.62,116.79Z" style="fill:#050400;opacity:0.1"></path><path d="M575.83,102.76A17.17,17.17,0,0,1,577,104.9a16.17,16.17,0,0,1,.91,2.28,11.45,11.45,0,0,1,.49,2.41,6.7,6.7,0,0,1-.19,2.44c0-.21,0-.41.07-.61a1.51,1.51,0,0,0,0-.3v-.31c0-.1,0-.2,0-.3l0-.3c0-.2,0-.4-.06-.6l-.09-.6-.13-.59c0-.2-.1-.39-.15-.59s-.11-.39-.17-.58a23.05,23.05,0,0,0-.84-2.28c-.16-.38-.32-.75-.5-1.11S576,103.12,575.83,102.76Z" style="fill:#050400;opacity:0.1"></path><path d="M550.3,96.49a12.2,12.2,0,0,1,1.55-1.74c.55-.55,1.12-1.08,1.7-1.59a21.9,21.9,0,0,1,1.8-1.49,7.94,7.94,0,0,1,2.1-1,11,11,0,0,0-1,.52,9,9,0,0,0-1,.63c-.3.24-.59.49-.88.75l-.87.77L552,94.88l-.85.79A9.07,9.07,0,0,0,550.3,96.49Z" style="fill:#050400;opacity:0.1"></path><path d="M549.49,98.74a12,12,0,0,1,1-1.38,14.85,14.85,0,0,1,1.1-1.28,5.74,5.74,0,0,1,.62-.58l.66-.5.68-.5.69-.48c-.2.2-.41.38-.62.57l-.63.55-.64.54a6.33,6.33,0,0,0-.59.57c-.39.39-.75.81-1.13,1.23l-.55.62Z" style="fill:#050400;opacity:0.1"></path><path d="M575,94.45c-2,.56-6.54,1.78-7.51,1.58a6.91,6.91,0,0,1-1-.33,37.9,37.9,0,0,0-3.41-4.52,21.19,21.19,0,0,0-4,1,20.6,20.6,0,0,1-2.66-2.76,6.69,6.69,0,0,1,3.92-1.63,31.11,31.11,0,0,1,6.75,1.2S571,89.76,575,94.45Z" style="fill:#050400;opacity:0.1"></path><path d="M564.06,89.2s-3.17-5.35-8.53-6.06c0,0,.12,5.33,2,7.12.93.89,5.13,1.33,5.64.64A10,10,0,0,0,564.06,89.2Z" style="fill:#FF7C27"></path><path d="M560.05,85a1,1,0,0,1-1,.12,1,1,0,0,1-.56-1A10.51,10.51,0,0,1,560.05,85Zm-3.43,1.88a1,1,0,0,0-.65,0,11.91,11.91,0,0,0,.55,1.84,1,1,0,0,0,.6-.53A1,1,0,0,0,556.62,86.86Zm5.67.46a1,1,0,0,0-1.27.49,1,1,0,1,0,1.76.78A1,1,0,0,0,562.29,87.32Z" style="fill:#fff;opacity:0.30000000000000004"></path><path d="M564.06,89.2a10,10,0,0,1-.92,1.7l-.09.08a.35.35,0,0,1-.12.07l-.11,0a5.86,5.86,0,0,1-2.33.08,13,13,0,0,1,.62-2.3,3.57,3.57,0,0,1,1.63-1.43A12.67,12.67,0,0,1,564.06,89.2Z" style="fill:#050400;opacity:0.1"></path><path d="M565.36,90s7.5-1,11.07.67c0,0-2,3.86-5.79,4.76-1.69.4-6.55-2.73-6.27-3.61A7.36,7.36,0,0,1,565.36,90Z" style="fill:#FF7C27"></path><path d="M574.09,93.22a1,1,0,0,1-1.27.5,1,1,0,0,1-.49-1.27,1,1,0,1,1,1.76.77Zm-6.93-3a1,1,0,1,0,.5,1.27A1,1,0,0,0,567.16,90.17Zm2.11,5a.9.9,0,0,0-.48-.07c.25.09.5.17.72.23A1,1,0,0,0,569.27,95.14Z" style="fill:#fff;opacity:0.30000000000000004"></path><path d="M567.07,89.78a4.41,4.41,0,0,1-.18,2.47,3.67,3.67,0,0,1-1,1.21c-1-.68-1.61-1.35-1.51-1.69a7.58,7.58,0,0,1,1-1.82S566,89.86,567.07,89.78Z" style="fill:#050400;opacity:0.1"></path><path d="M566.11,91.66a2.46,2.46,0,1,1-1-3.33A2.45,2.45,0,0,1,566.11,91.66Z" style="fill:#FF7C27"></path><path d="M555.49,168.82,555,185.48h53.25s-16.72-41.74-30-54.38c-7.28-6.94-13.47-4.4-17.82,1.42-1.1,1.48-9.92,16.91-10.47,24.84C549.55,164.35,555.49,168.82,555.49,168.82Z" style="fill:#FF7C27"></path><path d="M604.79,177.22H555.26l.06-2.08h48.56C604.2,175.86,604.5,176.56,604.79,177.22Z" style="fill:#ebebeb"></path><path d="M606.8,181.89H555.13l.06-2.07h50.72Z" style="fill:#ebebeb"></path><path d="M555.52,148.36c-.15,4,7.35,6.46,12.59.25s6.71-12.85,5.62-16.17C572.05,127.32,556.11,132.8,555.52,148.36Z" style="fill:#455a64"></path><path d="M566,140.67c-8.32,6.22-36.49,21-45.54,18.37-7.64-2.18-21.34-14.52-28.58-21.16-2.3-2.11,18.79-23.8,22.74-19.24,5.11,5.88,13.93,13.6,15.66,14.16.66.21,17.71-2.21,31.88-4C574.29,127.33,576.57,132.79,566,140.67Z" style="fill:#ad6359"></path><path d="M518,123s-3.18-4.07-3.4-4.33a18,18,0,0,1-2.51-4.68c-2.7-6.33-13.31-20-32.64-19.46-7.41.22-10.49,5.51-2.75,6.65,5.44.8,9.29.89,11,1.65,0,0-7.29,4.24-7.73,9.1a89,89,0,0,0-.26,12.79,19.38,19.38,0,0,0,2.39.27,10.26,10.26,0,0,0,5.8,9.27l5.9,5.41Z" style="fill:#ad6359"></path><path d="M508.59,108.33c-3.24-1.57-10.18-4.78-16.77-5.44-7.32-.73-21.61-.15-22.09,5.25-.36,4,5.12,4.23,5.12,4.23s-5.86,1.48-5.39,5.13c.42,3.33,4.67,3.28,4.67,3.28s-3.4,1.51-2.38,4.64c1.24,3.76,8.16,0,12.7,2.71C485.47,128.74,508.59,108.33,508.59,108.33Z" style="fill:#ad6359"></path><path d="M492.34,110.75a29.37,29.37,0,0,0-17.4,1.49c-.14.07-.17.2,0,.17a71.93,71.93,0,0,1,17.42-1.59A0,0,0,0,0,492.34,110.75Z" style="fill:#263238"></path><path d="M491.39,118.12c-2.93-.55-11.24-.49-17.28,2.53-.14.06-.16.2,0,.17a77,77,0,0,1,17.3-2.63S491.43,118.13,491.39,118.12Z" style="fill:#263238"></path><path d="M539.92,130.86l-.36,26.51s23.62-12.59,30.17-18.63c7.38-6.79,3.84-10.6-4.84-10.13C555.38,129.13,539.92,130.86,539.92,130.86Z" style="fill:#455a64"></path><path d="M544.31,153.71c.16-.92.4-9.18.42-11s.14-9.14,0-11a.07.07,0,0,0-.13,0c-.21,1.84-.36,9.25-.42,11.08s-.11,10,0,10.9C544.2,153.79,544.3,153.77,544.31,153.71Z" style="fill:#263238"></path><path d="M539.59,154.81c.06.85.09,1.71.13,2.56l-.24-.14q7.82-4.65,15.75-9c1.76-1,3.53-2,5.32-2.9-3.3,2.34-6.75,4.46-10.24,6.49s-7.22,4-10.93,5.87c.07-.94.12-1.89.21-2.83Z" style="fill:#263238"></path><path d="M556.64,147.79a24.92,24.92,0,0,1,4.05-1.24,5.56,5.56,0,0,1-4.05,1.24Z" style="fill:#263238"></path></g><g id="freepik--character-1--inject-42"><g style="opacity:0.8"><path d="M330.27,242.19l48.4,9.42,10.85-56.55a9.76,9.76,0,0,1-2.88-1.36.87.87,0,0,1,.31-1.56,11.69,11.69,0,0,1,3.22-.34l.58-3a9.58,9.58,0,0,1-2.89-1.36.91.91,0,0,1,.32-1.6,15,15,0,0,1,3.21-.3l.58-3a9.51,9.51,0,0,1-2.88-1.35.91.91,0,0,1,.32-1.6,14.31,14.31,0,0,1,3.21-.31l.6-3.07a11.39,11.39,0,0,1-2.91-1.32.91.91,0,0,1,.32-1.6,17.88,17.88,0,0,1,3.22-.34l2.48-12.78c.88-4.48-13.26-24.64-13.26-24.64l.67-3.48-13.48-2.63-.68,3.48s-20.7,13-21.64,17.84l-2.49,12.78a17.82,17.82,0,0,1,2.86,1.53.79.79,0,0,1,.28.36.89.89,0,0,1-.3,1.09.57.57,0,0,1-.3.15,11.55,11.55,0,0,1-3.17.13l-.6,3.08a13.65,13.65,0,0,1,2.76,1.43l.1.06a.91.91,0,0,1-.31,1.6l-.25,0a9.38,9.38,0,0,1-2.94.12l-.59,3a13.43,13.43,0,0,1,2.34,1.17c.19.11.36.23.53.32a.92.92,0,0,1-.32,1.61,5.73,5.73,0,0,1-.76.13,9.32,9.32,0,0,1-2.43,0l-.58,3a12,12,0,0,1,1.94.93c.34.21.65.42.9.6a.87.87,0,0,1-.3,1.56,8.44,8.44,0,0,1-1.22.19,10,10,0,0,1-2,0l-5.7,29.31v0Z" style="fill:#fff"></path><path d="M330.27,242.19c-.08-.05,49,9.28,48.27,9.39.1,0,10.67-57.33,10.93-56.35a9.8,9.8,0,0,1-2.91-1.36,1,1,0,0,1-.45-1.11,1.08,1.08,0,0,1,.87-.82,11.81,11.81,0,0,1,3.19-.33l-.19.15.58-3,.14.23a10.31,10.31,0,0,1-2-.81c-.63-.35-1.59-.8-1.36-1.69s1.21-.9,1.92-1a11.88,11.88,0,0,1,2.15-.12l-.21.16.58-3,.15.24a9.39,9.39,0,0,1-2-.8c-.65-.35-1.6-.82-1.37-1.71a1.11,1.11,0,0,1,.87-.86,14.38,14.38,0,0,1,3.21-.3l-.22.17.6-3.08.15.25a11.16,11.16,0,0,1-3-1.32,1.1,1.1,0,0,1-.44-1.16,1.12,1.12,0,0,1,.88-.87,19.09,19.09,0,0,1,3.2-.34l-.22.18c.35-1.81,2.13-11,2.45-12.65.18-2.49-1.34-4.88-2.36-7.1-1.57-3-3.35-6-5.17-8.89s-3.76-5.83-5.73-8.68l0-.1.67-3.48.18.28-13.47-2.64.26-.17-.69,3.47c-5.66,3.86-11.63,7.63-16.86,12.16-1.8,1.68-4.08,3.36-4.83,5.77-.28,1.57-2.14,10.89-2.47,12.68l-.11-.2a18.38,18.38,0,0,1,2.9,1.56,1.08,1.08,0,0,1,.42.87,1.12,1.12,0,0,1-.43.84c-.27.26-.61.22-.93.29a12,12,0,0,1-2.68,0l.19-.14-.61,3.08-.1-.19a14,14,0,0,1,2.78,1.44,1,1,0,0,1,.53,1.07,1.08,1.08,0,0,1-.79.9,10.06,10.06,0,0,1-3.24.16l.17-.13-.58,3-.1-.17a15.74,15.74,0,0,1,2.88,1.5,1.07,1.07,0,0,1-.28,1.86,9.76,9.76,0,0,1-3.32.19l.16-.12-.58,3c-.44-.49,1.61.62,1.84.75.53.4,1.56.8,1.35,1.64a1,1,0,0,1-.8.81l-1.06.16a8.93,8.93,0,0,1-2.13,0l.15-.11c-2.79,14.06-8.32,42.45-11,56.54Zm0,0c2.6-14.14,8-42.49,10.72-56.59l0-.12h.13a10.17,10.17,0,0,0,3.11-.16.69.69,0,0,0,.58-.59c.15-.67-.7-.92-1.23-1.34a12,12,0,0,0-1.88-.9l-.12,0,0-.12.57-3,0-.13a9.51,9.51,0,0,0,3.32-.17.68.68,0,0,0,.41-.33.75.75,0,0,0-.19-1,15.22,15.22,0,0,0-2.95-1.52l0-.13.58-3,0-.14a9.78,9.78,0,0,0,3.28-.15.74.74,0,0,0,.16-1.36,13.82,13.82,0,0,0-2.86-1.47l0-.14.6-3.08,0-.15.15,0a8.36,8.36,0,0,0,3.32-.23.71.71,0,0,0,.33-.6.7.7,0,0,0-.29-.59,17.25,17.25,0,0,0-2.95-1.56l0-.15,2-10.14.49-2.54c.77-2.57,3.08-4.24,4.94-6a154.48,154.48,0,0,1,16.79-12.08l-.09.14.67-3.48,0-.22.21,0,13.48,2.61.23,0,0,.23-.67,3.48,0-.18c4.76,7.14,9.89,14.23,13,22.3a5.6,5.6,0,0,1,.32,2.65l-.49,2.53-2,10.12,0,.18a14.44,14.44,0,0,0-2.27.16c-.5.13-1.46,0-1.57.69a.65.65,0,0,0,.26.7,10.68,10.68,0,0,0,3,1.33l0,.2-.6,3.08,0,.18h-.18a14,14,0,0,0-3.1.28.7.7,0,0,0-.28,1.25,9.39,9.39,0,0,0,3,1.37l0,.18-.58,3,0,.17a11.32,11.32,0,0,0-2.25.11c-.55.14-1.44,0-1.59.71a.68.68,0,0,0,.28.73,9.54,9.54,0,0,0,3,1.36l0,.18-.59,3,0,.17h-.16a11.59,11.59,0,0,0-3.1.32.68.68,0,0,0-.58.53.64.64,0,0,0,.28.72,9.27,9.27,0,0,0,2.81,1.32c.51,0-10.9,56.54-10.77,56.75.06.4-48.38-9.54-48.53-9.44Z" style="fill:#263238"></path></g><path d="M350.94,157.74l-10.3,52.93-5.34,28,39.86,7.75,15.52-80.37c-3.61.54-33.49-6.81-39.66-8.57A.68.68,0,0,0,350.94,157.74Z" style="fill:#ebebeb;opacity:0.8"></path><rect x="368.31" y="120.65" width="19.72" height="10.14" rx="0.51" transform="translate(725.34 321.42) rotate(-168.98)" style="fill:#FF7C27"></rect><path d="M388.63,199.67l-48.39-9.49.88-4.55a9.31,9.31,0,0,0,2,0,7.1,7.1,0,0,0,1.22-.19.87.87,0,0,0,.3-1.56c-.25-.18-.56-.39-.9-.6a12,12,0,0,0-1.94-.93l.58-3a9.34,9.34,0,0,0,2.43,0c.27,0,.52-.08.76-.13a.92.92,0,0,0,.31-1.61l-.53-.32a13.2,13.2,0,0,0-2.32-1.17l.58-3a9.29,9.29,0,0,0,2.93-.12l.26,0a.91.91,0,0,0,.31-1.6l-.1-.06a13.38,13.38,0,0,0-2.76-1.43l.6-3.08a11.55,11.55,0,0,0,3.17-.13.57.57,0,0,0,.3-.15.9.9,0,0,0,.31-1.09.89.89,0,0,0-.29-.36,18.62,18.62,0,0,0-2.86-1.54l.94-4.83,48.39,9.49-.93,4.78a17.88,17.88,0,0,0-3.22.34.91.91,0,0,0-.31,1.6,11.15,11.15,0,0,0,2.9,1.32l-.6,3.07a14.47,14.47,0,0,0-3.22.31.91.91,0,0,0-.31,1.6,9.51,9.51,0,0,0,2.88,1.35l-.58,3a13.8,13.8,0,0,0-3.21.31.9.9,0,0,0-.32,1.59,9.7,9.7,0,0,0,2.89,1.36l-.59,3a11.28,11.28,0,0,0-3.21.34.88.88,0,0,0-.32,1.56,9.69,9.69,0,0,0,2.89,1.35Z" style="fill:#FF7C27"></path><path d="M388.63,199.67l-48.39-9.49.88-4.55a9.31,9.31,0,0,0,2,0,7.1,7.1,0,0,0,1.22-.19.87.87,0,0,0,.3-1.56c-.25-.18-.56-.39-.9-.6a12,12,0,0,0-1.94-.93l.58-3a9.34,9.34,0,0,0,2.43,0c.27,0,.52-.08.76-.13a.92.92,0,0,0,.31-1.61l-.53-.32a13.2,13.2,0,0,0-2.32-1.17l.58-3a9.29,9.29,0,0,0,2.93-.12l.26,0a.91.91,0,0,0,.31-1.6l-.1-.06a13.38,13.38,0,0,0-2.76-1.43l.6-3.08a11.55,11.55,0,0,0,3.17-.13.57.57,0,0,0,.3-.15.9.9,0,0,0,.31-1.09.89.89,0,0,0-.29-.36,18.62,18.62,0,0,0-2.86-1.54l.94-4.83,48.39,9.49-.93,4.78a17.88,17.88,0,0,0-3.22.34.91.91,0,0,0-.31,1.6,11.15,11.15,0,0,0,2.9,1.32l-.6,3.07a14.47,14.47,0,0,0-3.22.31.91.91,0,0,0-.31,1.6,9.51,9.51,0,0,0,2.88,1.35l-.58,3a13.8,13.8,0,0,0-3.21.31.9.9,0,0,0-.32,1.59,9.7,9.7,0,0,0,2.89,1.36l-.59,3a11.28,11.28,0,0,0-3.21.34.88.88,0,0,0-.32,1.56,9.69,9.69,0,0,0,2.89,1.35Z" style="fill:#fff;opacity:0.6000000000000001"></path><path d="M287.5,412.44s-1.75,42.93-1.75,43c.22,8.39.56,15.74,1.09,19.53a.13.13,0,0,0,0,.06,5.78,5.78,0,0,0,.69,2.58l0,.05c2.54,1.63,69.63,1.83,72,1.05s.3-7.52-2.3-9.61S329,455.41,329,455.41l1.33-42.89Z" style="fill:#d3766a"></path><path d="M285.46,446.4s.29,9,.29,9c.22,8.39.56,15.74,1.09,19.53a.13.13,0,0,0,0,.06,10.89,10.89,0,0,0,.69,2.58l0,.05c2.54,1.63,69.63,1.83,72,1.05s.3-7.52-2.3-9.61S329,455.41,329,455.41l-.16-9.14Z" style="fill:#ebebeb"></path><path d="M359.57,478.67c-2.35.78-69.44.58-72-1.05-1-.61-1.52-10.38-1.83-22.22,0-.12,0-.24,0-.37l43.29-.35,0,.74s25.65,11.56,28.26,13.65S361.91,477.9,359.57,478.67Z" style="fill:#FF7C27"></path><path d="M359.57,478.67c-2.35.78-69.44.58-72-1.05-1-.61-1.52-10.38-1.83-22.22,0-.12,0-.24,0-.37l43.29-.35,0,.74s25.65,11.56,28.26,13.65S361.91,477.9,359.57,478.67Z" style="opacity:0.4"></path><path d="M358.82,476.07c-11.31-.32-56.95-.51-68.16,0-.09,0-.09.07,0,.08,11.21.55,56.85.37,68.16.06C359.05,476.24,359.05,476.07,358.82,476.07Z" style="fill:#263238"></path><path d="M332.65,455.56c-4.45-.85-9.9-.18-13.31,3-.13.12.05.31.19.26a62.83,62.83,0,0,1,13.1-2.68A.28.28,0,0,0,332.65,455.56Z" style="fill:#263238"></path><path d="M335.85,457.5c-4.44-.84-9.89-.18-13.3,3-.13.12,0,.3.19.26a62.76,62.76,0,0,1,13.09-2.69A.28.28,0,0,0,335.85,457.5Z" style="fill:#263238"></path><path d="M339.06,459.45c-4.45-.85-9.89-.18-13.3,3-.14.12,0,.31.18.26A62.83,62.83,0,0,1,339,460,.28.28,0,0,0,339.06,459.45Z" style="fill:#263238"></path><path d="M282.88,451.5l46.94-.94s5.72-80.69,4.65-108.85c-1.15-30.59-14.29-121.6-14.29-121.6H280.53s10.14,91.37,10.35,122C291.08,370.45,282.88,451.5,282.88,451.5Z" style="fill:#263238"></path><path d="M320.18,220.11,290,321.24c-2.82-39-9.44-101.13-9.44-101.13Z" style="fill:#37474f"></path><path d="M288.06,224.6l2.52,27.16L292.91,279c1.49,18.13,2.91,36.26,4,54.43.26,4.54.42,9.1.36,13.66s-.28,9.11-.51,13.65Q296,374.32,295,387.93t-2.2,27.19l-2.53,23.4,2-23.44q1-13.59,1.91-27.21c.58-9.07,1.19-18.14,1.61-27.22.21-4.54.38-9.08.46-13.62s-.13-9.06-.4-13.6c-1-18.15-2.43-36.28-3.75-54.42Z" style="fill:#37474f"></path><path d="M327.86,441.34c-7.08-.07-5.05-.15-12.12-.14-3.47,0-26.22.08-29.45.67-.07,0-.07.14,0,.15,3.24.52,26,0,29.46,0,7.07-.16,5-.19,12.11-.43A.11.11,0,0,0,327.86,441.34Z" style="fill:#37474f"></path><path d="M219.32,387.55l-22.66,36.83c-3.68,7.55-6.77,14.23-8,17.83a.14.14,0,0,0,0,.06,5.66,5.66,0,0,0-.58,2.6.64.64,0,0,0,0,.07c1.5,2.61,60.93,33.76,63.37,34.15s3.74-6.53,2.4-9.58S235,444.36,235,444.36l22.26-37Z" style="fill:#d3766a"></path><path d="M188,444.88a.13.13,0,0,0,0,.06c1.51,2.62,60.94,33.76,63.38,34.15s3.74-6.53,2.4-9.58S235,444.35,235,444.35l4-6.59c-9.71-5.18-27.37-14.27-38.33-19.91l-4,6.54c-3.68,7.54-6.77,14.21-8,17.82a.14.14,0,0,0,0,.06A5.67,5.67,0,0,0,188,444.88Z" style="fill:#ebebeb"></path><path d="M251.41,479.09c-2.44-.39-61.87-31.53-63.37-34.15-.59-1,3.44-9.91,8.62-20.56l.17-.33,38.56,19.67-.35.64s17.41,22.1,18.76,25.16S253.85,479.49,251.41,479.09Z" style="fill:#FF7C27"></path><path d="M251.41,479.09c-2.44-.39-61.87-31.53-63.37-34.15-.59-1,3.44-9.91,8.62-20.56l.17-.33,38.56,19.67-.35.64s17.41,22.1,18.76,25.16S253.85,479.49,251.41,479.09Z" style="opacity:0.4"></path><path d="M252,476.44c-9.89-5.5-50.29-26.73-60.49-31.42-.08,0-.11,0,0,.07,9.68,5.66,50.26,26.56,60.43,31.51C252.07,476.7,252.15,476.55,252,476.44Z" style="fill:#263238"></path><path d="M238.2,446.16c-3.56-2.8-8.7-4.72-13.18-3.49-.18.05-.11.29,0,.32a62.69,62.69,0,0,1,12.86,3.66A.29.29,0,0,0,238.2,446.16Z" style="fill:#263238"></path><path d="M240.14,449.37c-3.55-2.8-8.69-4.72-13.18-3.49-.17,0-.1.29,0,.32a62.69,62.69,0,0,1,12.86,3.66A.28.28,0,0,0,240.14,449.37Z" style="fill:#263238"></path><path d="M242.09,452.58c-3.56-2.81-8.7-4.73-13.18-3.5-.17.05-.1.3.05.32a62.63,62.63,0,0,1,12.85,3.67A.29.29,0,0,0,242.09,452.58Z" style="fill:#263238"></path><path d="M320.18,220.07a.16.16,0,0,1,0,0c-.18.82-2.95,13.68-5.82,24.73-2.09,8.07-4.24,15.16-5.47,15.89-1.4.83-8.21,3.85-10.49,4.79,0,0-10.63,76.43-18.71,100.13C272.22,387.52,242,442.29,242,442.29l-44.78-22.62s34.32-55.65,38-66.29c5.7-16.5,23-96.08,23-96.08s-.41-6.77-.31-9.27c.18-4.7,6.53-24.56,8-28Z" style="fill:#263238"></path><path d="M242.58,433.31c-6.4-3.57-4.52-2.64-11-6.14-3.15-1.71-23.87-13-27.08-14-.08,0-.13.09-.07.13,2.69,2.06,23.6,12.95,26.78,14.6,6.5,3.38,4.67,2.34,11.22,5.64A.11.11,0,0,0,242.58,433.31Z" style="fill:#37474f"></path><path d="M273.15,247.09c1.17-.51,10.57-2.54,12.83-6.23,1.19-2,3.32-12.74,3.43-13.5,0-.11.19-.08.16,0-.12.51-.13,10.83-3,15.11-2,3-12.11,4.92-13.3,4.94A.18.18,0,0,1,273.15,247.09Z" style="fill:#37474f"></path><path d="M310.25,259.63a89.38,89.38,0,0,0-14,6.54c-.17.09-.06.37.13.28,4.73-2,9.55-4,14.16-6.26A.31.31,0,0,0,310.25,259.63Z" style="fill:#37474f"></path><path d="M311.68,227.25c0-.16-.3-.2-.3,0a157.9,157.9,0,0,1-.79,15.79c-.22,2.44-2.18,15.89-6.4,14.91-.71-.16-1.07-.86-1.18-1.92a16.69,16.69,0,0,1,.56-4.13c.47-2.82.84-5.64,1.08-8.49a76.32,76.32,0,0,0-.17-15.92.14.14,0,0,0-.27,0,145.37,145.37,0,0,1-1.29,22c-.52,3.5-2.29,8.77,1.37,9.31s6.14-8.28,6.6-10.69A80.73,80.73,0,0,0,311.68,227.25Z" style="fill:#37474f"></path><path d="M304.3,258.3a22.77,22.77,0,0,0-.95,2.78,6.52,6.52,0,0,0-.4,2.3c0,.15.22.16.3.06a8.41,8.41,0,0,0,1-2.23c.32-.86.66-1.72.95-2.59A.47.47,0,0,0,304.3,258.3Z" style="fill:#37474f"></path><path d="M211,410.87c6.37-12,10.57-18.84,17.17-30.72,3.25-5.85,6.64-11.64,9.74-17.58A106.09,106.09,0,0,0,245,344.24c3.94-12.81,16.27-80.38,17-83.64.47-2-.4-13.17.08-16.31s4.72-19.16,5.26-20.72a.15.15,0,0,1,.28.08c-1.93,6.32-4.09,17.2-4.65,20.49s.25,15.33,0,16.83c-.32,1.67-11.75,66.35-15.66,79.24-1.9,6.27-3.67,12.64-6.37,18.62s-6.12,11.66-9.34,17.39c-6.65,11.83-11,18.58-17.84,30.29-.87,1.49-1.75,3-2.62,4.45A.09.09,0,0,1,211,410.87Z" style="fill:#37474f"></path><path d="M322.86,245.05c-.85,0-3.33-1.75-3.63-2.2-2.07-3.12-2.58-13-2.75-15.66,0-.13-.07-.09-.07,0,0,2.93.1,5.91.34,8.73a31,31,0,0,0,1.08,6.79c.63,1.77,4.12,3,5,2.6C322.92,245.31,322.92,245.05,322.86,245.05Z" style="fill:#37474f"></path><path d="M261.25,230.7c.14.16,60.94-.52,61.49-1.13.05-.06-6.34-50.28-19-70.15-2.18-3.42-11.41-5.48-15.09-1.48C275.8,171.92,261.21,230.66,261.25,230.7Z" style="fill:#FF7C27"></path><path d="M321.28,219.61l-57.27.52c.19-.67.38-1.37.58-2.09l56.36-.5Q321.12,218.62,321.28,219.61Z" style="fill:#ebebeb"></path><path d="M322,224.28l-59.26.53c.17-.65.36-1.34.55-2.08l58.39-.52C321.81,223,321.91,223.64,322,224.28Z" style="fill:#ebebeb"></path><path d="M289.1,144.89a27.59,27.59,0,0,1-1.1,4.89c-.57,1.21-3.67,2-3.67,2s3,1.76,4,1.72,2.9-2.13,2.9-2.13-2.09,3.53-3.45,3.48c-.84,0,2,.53,2,.53a3.87,3.87,0,0,0,2.69-.68C293.63,153.79,289.1,144.89,289.1,144.89Z" style="fill:#263238"></path><path d="M302.9,167.57c-3.5.77-10.11-6.18-12.4-10.53-.15-.3.32-2.32.75-6.12.26-2.31.49-4.88.52-7.25l14.79,3.85a37.58,37.58,0,0,0-1.58,9.06,6,6,0,0,0,.08,1,.78.78,0,0,1,0,.16C305.35,159.56,306.27,166.83,302.9,167.57Z" style="fill:#d3766a"></path><path d="M304.57,160.09h.78c-.08-1-.19-1.9-.26-2.39a1.43,1.43,0,0,1,0-.16,5.94,5.94,0,0,1-.09-1,37.89,37.89,0,0,1,1.59-9l-14.79-3.85c0,.5,0,1,0,1.51C292.62,150.14,295.55,159.75,304.57,160.09Z" style="fill:#263238"></path><path d="M285.49,133.52c0,5.51,7.05,19.25,11.62,21.41,6.62,3.13,15.26,1,17.36-6.45,2-7.23-7.49-25-12.38-26.71C294.88,119.21,285.5,125.4,285.49,133.52Z" style="fill:#d3766a"></path><path d="M302.65,138.43s-.06.08,0,.12c.45.94.81,2.09.08,2.79a0,0,0,0,0,0,0C303.71,140.78,303.22,139.25,302.65,138.43Z" style="fill:#263238"></path><path d="M301.36,137.81c-1.58.55-.36,3.68,1.11,3.17S302.69,137.34,301.36,137.81Z" style="fill:#263238"></path><path d="M308.11,136.11s.1,0,.11,0c.35,1,.92,2.05,1.92,2,0,0,.05.05,0,.05C309,138.51,308.29,137.09,308.11,136.11Z" style="fill:#263238"></path><path d="M308.58,134.76c1.51-.73,2.86,2.34,1.46,3S307.31,135.37,308.58,134.76Z" style="fill:#263238"></path><path d="M299.3,136.3a12.7,12.7,0,0,0,1.07-.87,2.19,2.19,0,0,0,.92-1.1.71.71,0,0,0-.4-.77,1.76,1.76,0,0,0-1.73.43,2.56,2.56,0,0,0-1,1.56A.75.75,0,0,0,299.3,136.3Z" style="fill:#263238"></path><path d="M308.88,131.83a12.5,12.5,0,0,1-1.37.17,2.19,2.19,0,0,1-1.43-.1.71.71,0,0,1-.27-.82,1.75,1.75,0,0,1,1.51-1,2.6,2.6,0,0,1,1.83.34A.76.76,0,0,1,308.88,131.83Z" style="fill:#263238"></path><path d="M304.83,147.8c.27.22.55.53.93.52a2.72,2.72,0,0,0,1.09-.37s.06,0,0,.05a1.41,1.41,0,0,1-1.26.69,1.12,1.12,0,0,1-.91-.84S304.79,147.77,304.83,147.8Z" style="fill:#263238"></path><path d="M304.64,144.26a3.6,3.6,0,0,0,2.78.6,4.32,4.32,0,0,0,1.21-.41.94.94,0,0,0,.22-.12l.2-.11a.28.28,0,0,0,.11-.3h0a.3.3,0,0,0,0-.1h0l0-.08c-.27-.75-.79-1.86-.79-1.86.32,0,2,.11,1.78-.27a53.37,53.37,0,0,0-5.19-9.49c-.07-.09-.22,0-.17.1,1.28,3.08,3.1,5.92,4.43,9a5.69,5.69,0,0,0-1.74.14c-.09.07,1,2.12,1.13,2.46a.1.1,0,0,1,0,0,4.89,4.89,0,0,1-3.83.28C304.61,144.11,304.56,144.2,304.64,144.26Z" style="fill:#263238"></path><path d="M308.52,144.31a4.57,4.57,0,0,1-1.13,2,2.05,2.05,0,0,1-1.12.55c-.92.13-1.26-.62-1.38-1.34a5.07,5.07,0,0,1-.05-1.15A5.9,5.9,0,0,0,308.52,144.31Z" style="fill:#263238"></path><path d="M307.39,146.31a2.05,2.05,0,0,1-1.12.55c-.92.13-1.26-.62-1.38-1.34A2.12,2.12,0,0,1,307.39,146.31Z" style="fill:#ff9abb"></path><path d="M289.59,145.67c2.26-1.64.47-10.56.47-10.56l2.17,4.47a11.85,11.85,0,0,0,1.52-4.68,8.73,8.73,0,0,0-1.46-4.67,16.26,16.26,0,0,0,7.39,1.59c1.3-.11,10-3.33,9.82-3.87-.59-1.62-6.13-6.14-8.87-6.84a12.13,12.13,0,0,0-11.86,2.73c-4.49,3.9-4.64,7.75-4.47,10.63S288.76,146.27,289.59,145.67Z" style="fill:#263238"></path><path d="M293.67,144s-4.79-3.61-6.53-1.76,2.92,7.84,5.71,7.95a2.66,2.66,0,0,0,2.95-2.46Z" style="fill:#d3766a"></path><path d="M288.52,143.87a0,0,0,0,0,0,.07c2,.14,3.43,1.46,4.62,2.93a1.48,1.48,0,0,0-2.22.3c0,.05,0,.11.08.08a1.62,1.62,0,0,1,1.89,0,7.9,7.9,0,0,1,1.27,1.12c.13.13.39-.05.27-.21l0,0C293.72,145.87,291,143.32,288.52,143.87Z" style="fill:#263238"></path><path d="M295.58,120.59a22,22,0,0,0-6.27,1c-2.25.77-8.67,4.55-9.62,6.68s1.71,8.62,2.12,9.56,3.55,6.31,6.22,6.67-1.76-9.2-.12-13.89S295.58,120.59,295.58,120.59Z" style="fill:#FF7C27"></path><path d="M295.58,120.59s-6,5.38-7.66,10.07,2.78,14.24.11,13.89c-1.18-.16-2-.83-3.13-2.13-.93-3-1.91-7.8-1.06-11.9.79-3.83,3.82-7.06,7.57-9.45A25.19,25.19,0,0,1,295.58,120.59Z" style="opacity:0.1"></path><path d="M291.33,149.89c-1.06-2.61-1.8-10.61-1-15.79s7.59-11.31,8.72-11.79c2.76-1.15,3.52-.12,3.83-.57S300,120,299,119.88s-3.53-.15-4.68.45-8,4.83-9.1,9.17-.61,14.75,1.15,16.62c.42.44,1.29.44,1.88,1.08.77.84,1.53,1.87,2.17,2.41S291.42,150.12,291.33,149.89Z" style="fill:#FF7C27"></path><path d="M290.1,132.06a14.52,14.52,0,0,1-2.37-.42,10.72,10.72,0,0,1-2.27-.86s-.11,0,0,.07a8.08,8.08,0,0,0,2.23,1.13,6.6,6.6,0,0,0,2.46.24C290.19,132.21,290.18,132.07,290.1,132.06Z" style="fill:#263238"></path><path d="M290.07,147.39c-.16-.15-.36-.25-.53-.39a4.27,4.27,0,0,1-.54-.5,6.66,6.66,0,0,0-.88-1.09,5.74,5.74,0,0,0-1-.55,1.82,1.82,0,0,1-1-.78c0-.05-.11,0-.09,0,.37.77,1.15,1.06,1.8,1.54a8.35,8.35,0,0,1,1,1.14,2.12,2.12,0,0,0,1.18.72C290.07,147.53,290.13,147.44,290.07,147.39Z" style="fill:#263238"></path><path d="M289.61,144.24a11.47,11.47,0,0,1-1.13-.51,8.38,8.38,0,0,1-1-.68c-.32-.24-.61-.51-.92-.76s-.78-.54-1.13-.85c0,0-.1,0-.05.07.36.33.67.71,1,1.05a10.91,10.91,0,0,0,1,.79,5.45,5.45,0,0,0,1,.61,3,3,0,0,0,1.17.33S289.63,144.25,289.61,144.24Z" style="fill:#263238"></path><path d="M289.32,141.33a8.12,8.12,0,0,1-2.13-.88c-.65-.39-1.27-.82-1.89-1.25,0,0-.1,0-.06.07a10,10,0,0,0,1.81,1.49,5.37,5.37,0,0,0,1,.48,5.53,5.53,0,0,0,1.22.18C289.35,141.42,289.37,141.34,289.32,141.33Z" style="fill:#263238"></path><path d="M289.16,138.48a2.78,2.78,0,0,1-1-.35c-.35-.17-.71-.36-1.05-.55l-1-.56a2.74,2.74,0,0,1-.91-.7s-.1,0-.08.05a2.94,2.94,0,0,0,.77.84,6.76,6.76,0,0,0,1.06.71,9,9,0,0,0,1.13.53,1.84,1.84,0,0,0,1.08.16C289.23,138.59,289.24,138.48,289.16,138.48Z" style="fill:#263238"></path><path d="M288.42,135.14c-.35-.12-.69-.24-1-.38s-.66-.3-1-.46-.68-.33-1-.52c-.05,0-.1,0-.06.07a7.61,7.61,0,0,0,.92.69,7.91,7.91,0,0,0,1,.52,9.37,9.37,0,0,0,1.05.38,2.79,2.79,0,0,0,1.1.17.06.06,0,0,0,0-.11A5.29,5.29,0,0,0,288.42,135.14Z" style="fill:#263238"></path><path d="M291.33,129.69a13,13,0,0,0-1.21-.53,11.82,11.82,0,0,0-1.29-.37,11.47,11.47,0,0,0-2.6-.36,0,0,0,0,0,0,.09c1.69.43,3.4.8,5.09,1.25C291.35,129.79,291.38,129.71,291.33,129.69Z" style="fill:#263238"></path><path d="M291.8,126.78a6.13,6.13,0,0,0-1.26-.39,12.57,12.57,0,0,0-2.74-.14,0,0,0,0,0,0,.09c.86.11,1.73.21,2.59.38.42.08.85.17,1.26.29s.79.34,1.2.49a0,0,0,0,0,0-.06A3.53,3.53,0,0,0,291.8,126.78Z" style="fill:#263238"></path><path d="M293.41,124.77a6.26,6.26,0,0,0-1.19-.43,7.25,7.25,0,0,0-2.37-.17c-.05,0,0,.08,0,.09a13.45,13.45,0,0,1,2.35.41c.39.1.77.22,1.15.34s.75.31,1.14.39c0,0,0,0,0-.05A5.86,5.86,0,0,0,293.41,124.77Z" style="fill:#263238"></path><path d="M294.31,122.77c-.37-.09-.74-.15-1.12-.22a3.77,3.77,0,0,0-1.11-.06,0,0,0,0,0,0,.09c.72.16,1.43.33,2.14.51a8.81,8.81,0,0,1,1.86.81s.06,0,0-.05A3.56,3.56,0,0,0,294.31,122.77Z" style="fill:#263238"></path><path d="M296,121.44a6,6,0,0,0-2.19-.23c-.05,0-.05.1,0,.1a6.79,6.79,0,0,1,2.09.4,9.24,9.24,0,0,1,1.94.9,0,0,0,0,0,.05,0A4.78,4.78,0,0,0,296,121.44Z" style="fill:#263238"></path><path d="M299,121.35a2.8,2.8,0,0,0-.4-.27,3.84,3.84,0,0,0-.9-.41,10,10,0,0,0-2-.41c-.06,0-.06.09,0,.1a8.26,8.26,0,0,1,1.9.47,6.78,6.78,0,0,1,.86.41l.4.25a3.22,3.22,0,0,0,.39.25s.07,0,.05-.06A1.12,1.12,0,0,0,299,121.35Z" style="fill:#263238"></path><path d="M300.61,120.75a6.89,6.89,0,0,0-.73-.34,7.08,7.08,0,0,0-.78-.25c-.26-.07-.54-.12-.8-.2-.07,0-.09.07,0,.09a5.61,5.61,0,0,1,.79.26l.73.3.73.3a6.07,6.07,0,0,0,.74.31s.06,0,0-.06A3.15,3.15,0,0,0,300.61,120.75Z" style="fill:#263238"></path><path d="M287.44,169.48c1.82,11.86,24.32,42.81,29.39,45.42,4.9,2.52,35.11.64,45.88-3,3.32-1.13-7.88-25.87-11.53-25-6.75,1.59-20.44,6-22.46,5.42-2.72-.76-22.61-16.62-31.52-25.59C289.69,159.12,286.52,163.49,287.44,169.48Z" style="fill:#d3766a"></path><path d="M369.4,183.66c-1.81,0-1.82-.95.71-2.93s14.22-7.67,11.89-11.59-18.71,4.36-22.67,8-9.1,10.87-9.1,10.87C353.74,187,362.48,185.48,369.4,183.66Z" style="fill:#d3766a"></path><path d="M361,212.29c9.79-3.09,21.3-5.73,29.05-14.34a5.76,5.76,0,0,0,1.55-3.43c3.54-3.8,2.81-6.61,2.81-6.61,2.22-4.55,1.08-7.32,1.08-7.32s4.1-4.51,1.79-7.44c-2.58-3.3-7.84,3.67-13.08,5.73-12,4.73-30.4,8.09-34,9.11Z" style="fill:#d3766a"></path><path d="M375.12,192.68A82.35,82.35,0,0,0,385.4,188a83.57,83.57,0,0,0,10-7.37.1.1,0,0,1,.14.14,43.79,43.79,0,0,1-20.32,12.12c-.18,0-.24-.08-.07-.16" style="fill:#263238"></path><path d="M376.92,200.34c3.34-1.61,9.18-4.48,17.44-12.52,0,0,.08,0,.05,0A39.31,39.31,0,0,1,377,200.5C376.78,200.59,376.7,200.45,376.92,200.34Z" style="fill:#263238"></path><path d="M378,204.44c5.56-2.95,8.69-5.52,13.62-9.92,0,0,.08,0,.06,0-5.08,5.59-7.56,7-13.61,10.08C377.84,204.75,377.75,204.56,378,204.44Z" style="fill:#263238"></path><path d="M287.38,161.9c-5.64,3.48-7.66,31.17-.43,33.59s8.6-10.73,8.85-16.38S292.19,158.94,287.38,161.9Z" style="fill:#455a64"></path><path d="M327.72,190.67l-16,22.75S294,191.22,288.13,174c-4.59-13.41-.5-16,8.76-8.44S327.72,190.67,327.72,190.67Z" style="fill:#FF7C27"></path><path d="M327.72,190.67l-16,22.75S294,191.22,288.13,174c-4.59-13.41-.5-16,8.76-8.44S327.72,190.67,327.72,190.67Z" style="fill:#455a64"></path><path d="M309.82,211.05c-3.35-4.31-6.45-8.81-9.5-13.34s-6.06-9.13-8.21-14.16c5.29,9,12.27,18.51,17.71,27.5Z" style="fill:#263238"></path><path d="M291.75,185.28c.89,1.11,1.84,2.11,2.8,3.17a8.07,8.07,0,0,1-2.8-3.17Z" style="fill:#263238"></path><polygon points="330.74 190.29 313.29 216.25 312.86 215.05 310.84 215.53 310.52 214.63 308.34 213.09 326.68 187.76 327.13 189.02 328.96 188.93 329.22 190.13 330.74 190.29" style="fill:#37474f"></polygon></g><g id="freepik--Box--inject-42"><polygon points="579.61 400.6 621.09 400.6 633.4 412.6 591.92 412.6 579.61 400.6" style="fill:#FF7C27"></polygon><polygon points="579.61 400.6 621.09 400.6 633.4 412.6 591.92 412.6 579.61 400.6" style="opacity:0.1"></polygon><path d="M623.07,472.2H598.19c-1.18,0,0-37.58,0-41.77s7.2-15,7.2-17.4V393.76h10.49V413c0,2.37,7.19,13.23,7.19,17.4S624.25,472.2,623.07,472.2Z" style="fill:#fff"></path><path d="M623.07,472.2l-23,.09h-1.85a.28.28,0,0,1-.12,0c-.2-.08-.21-.38-.26-.54-.74-9-.22-18-.19-27.06l.23-13.11a13.92,13.92,0,0,1,1.57-6.4c1.64-4.11,4.42-7.9,5.56-12.15,0-.8,0-2.07,0-2.87,0-5.43,0-11,0-16.39v-.35h.35l10.49,0h.31v.31c0,4.7,0,12.91-.07,17.51v1.25c0,2.06,1.32,3.82,2.15,5.69,1.29,2.68,3.29,6.29,4.26,9.07a12.19,12.19,0,0,1,.73,5l.33,20c0,5,.1,10,0,15a39.72,39.72,0,0,1-.28,4.36c0,.2,0,.45-.22.57Zm0,0c.18-.12.17-.38.22-.57a39.68,39.68,0,0,0,.24-4.36c.08-5,0-10-.1-15-.07-1.37-.47-21.85-.58-22.49a27.61,27.61,0,0,0-2.69-6.91l-2.28-4.46c-.84-1.85-2.22-3.75-2.24-5.88,0-.88,0-2.88,0-3.76,0-3.26,0-11.65-.06-15l.31.3-10.49,0,.34-.34q0,6.56,0,13.11c0,1.57,0,4.22,0,5.74s-.78,2.76-1.32,4c-1.45,2.94-3.06,5.81-4.4,8.79-.87,2-1.72,4-1.57,6.19-.21,12.69-1,26.71-.45,39.32a5,5,0,0,0,.21,1.17c0,.05.17,0,.29,0l4.92,0,19.67.08Z" style="fill:#263238"></path><path d="M621.24,469.79H600c-1,0,0-35.41,0-39s7-14.51,7-16.53v-8.84h7.26v8.84c0,2,7,13,7,16.53S622.24,469.79,621.24,469.79Z" style="fill:#FF7C27"></path><g style="opacity:0.1"><path d="M620.08,443.69a1.11,1.11,0,1,0,.08,1.58A1.12,1.12,0,0,0,620.08,443.69Z"></path><path d="M613.8,418.28a1.11,1.11,0,1,0,.08,1.58A1.11,1.11,0,0,0,613.8,418.28Z"></path><path d="M620.23,439.8a.79.79,0,1,0,0,1.12A.79.79,0,0,0,620.23,439.8Z"></path><path d="M608.94,465.16a.79.79,0,0,0-1.06,1.17.79.79,0,1,0,1.06-1.17Z"></path><path d="M603.63,432.39a.8.8,0,0,0-1.12.05.79.79,0,0,0,1.17,1.07A.8.8,0,0,0,603.63,432.39Z"></path><path d="M616.45,444.31a.56.56,0,1,0-.75.83.57.57,0,0,0,.79,0A.56.56,0,0,0,616.45,444.31Z"></path><path d="M606.7,463.35a.56.56,0,0,0-.76.83.56.56,0,0,0,.76-.83Z"></path></g><rect x="604.49" y="391.19" width="12.28" height="2.57" style="fill:#fff"></rect><path d="M616.77,391.19c-4.12.17-8.19.33-12.28.35l.35-.35,0,2.57-.38-.38c3.63,0,8.71.07,12.28.24l-.13.14.13-2.57Zm0,0,.13,2.57v.12c-2.09.1-4.19.14-6.28.19l-6.14.06h-.38c0-.51,0-2.78,0-3.3,4.12,0,8.56.17,12.62.36Z" style="fill:#263238"></path><rect x="604.49" y="388.21" width="12.28" height="2.57" style="fill:#fff"></rect><path d="M616.77,388.21c-4.12.17-8.19.33-12.28.35l.35-.35,0,2.57-.38-.38c3.63,0,8.71.07,12.28.25l-.13.13.13-2.57Zm0,0,.13,2.57v.12c-2.09.11-4.19.14-6.28.2l-6.14,0h-.38c0-.52,0-2.78,0-3.3,4.12,0,8.56.16,12.62.35Z" style="fill:#263238"></path><ellipse cx="608.92" cy="448.49" rx="7.71" ry="12.23" style="fill:#fff"></ellipse><rect x="605.39" y="407.68" width="10.5" height="4.93" style="fill:#455a64"></rect><rect x="597.84" y="444.52" width="25.59" height="7.95" style="fill:#455a64"></rect><path d="M640.92,472.2H616c-1.18,0,0-37.58,0-41.77s7.19-15,7.19-17.4V393.76h10.49V413c0,2.37,7.2,13.23,7.2,17.4S642.09,472.2,640.92,472.2Z" style="fill:#fff"></path><path d="M640.92,472.2c-7,0-18.06.09-24.93.08-.34-.23-.28-1-.36-1.36-.32-4.37-.24-8.75-.24-13.12,0-7.57.27-18.54.38-26.23a13.92,13.92,0,0,1,1.57-6.4c1.65-4.11,4.42-7.9,5.56-12.15,0-1.72,0-4.42,0-6.15,0-4.37,0-8.74,0-13.11v-.35h.35l10.49,0H634v.31c0,4.7,0,12.91-.07,17.51v1.25c0,2.06,1.32,3.82,2.14,5.69a95.62,95.62,0,0,1,4.26,9.07,12.2,12.2,0,0,1,.74,5l.33,20c.05,5,.1,10,0,15a39.71,39.71,0,0,1-.27,4.36c0,.2,0,.45-.22.57Zm0,0c.17-.12.16-.38.21-.57a39.69,39.69,0,0,0,.25-4.36c.07-5,0-10-.11-15-.06-1.37-.47-21.85-.58-22.49a27.58,27.58,0,0,0-2.68-6.91l-2.28-4.46c-.84-1.85-2.22-3.75-2.24-5.88,0-.88,0-2.88,0-3.76,0-3.26,0-11.65-.06-15l.31.3-10.49,0,.35-.34q0,6.56,0,13.11c0,1.57,0,4.22,0,5.74s-.78,2.76-1.32,4c-1.44,2.94-3.06,5.81-4.39,8.79-.87,2-1.72,4-1.57,6.19-.21,12.69-1,26.71-.45,39.32a4.55,4.55,0,0,0,.2,1.17c0,.05.17,0,.29,0l4.92,0,19.68.08Z" style="fill:#263238"></path><path d="M639.08,469.79H617.87c-1,0,0-35.41,0-39s7-14.51,7-16.53v-8.84h7.26v8.84c0,2,7,13,7,16.53S640.09,469.79,639.08,469.79Z" style="fill:#FF7C27"></path><g style="opacity:0.1"><path d="M637.93,443.69a1.12,1.12,0,1,0,.07,1.58A1.12,1.12,0,0,0,637.93,443.69Z"></path><path d="M631.65,418.28a1.12,1.12,0,1,0,.07,1.58A1.11,1.11,0,0,0,631.65,418.28Z"></path><path d="M638.07,439.8a.79.79,0,1,0,.06,1.12A.79.79,0,0,0,638.07,439.8Z"></path><path d="M626.79,465.16a.79.79,0,1,0,.05,1.12A.79.79,0,0,0,626.79,465.16Z"></path><path d="M621.47,432.39a.8.8,0,0,0-1.12.05.8.8,0,1,0,1.12-.05Z"></path><path d="M634.29,444.31a.56.56,0,0,0-.79,0,.56.56,0,0,0,.83.75A.56.56,0,0,0,634.29,444.31Z"></path><path d="M624.54,463.35a.56.56,0,0,0-.75.83.57.57,0,0,0,.79,0A.56.56,0,0,0,624.54,463.35Z"></path></g><rect x="622.34" y="391.19" width="12.28" height="2.57" style="fill:#fff"></rect><path d="M634.62,391.19c-4.13.17-8.2.33-12.28.35l.35-.35,0,2.57-.37-.38c3.62,0,8.71.07,12.28.24l-.14.14.14-2.57Zm0,0,.13,2.57v.12c-2.09.1-4.18.14-6.27.19l-6.14.06H622c0-.13,0-2.72,0-2.94v-.36h.35c4,0,8.34.17,12.28.35Z" style="fill:#263238"></path><rect x="622.34" y="388.21" width="12.28" height="2.57" style="fill:#fff"></rect><path d="M634.62,388.21c-4.13.17-8.2.33-12.28.35l.35-.35,0,2.57-.37-.38c3.62,0,8.71.07,12.28.25l-.14.13.14-2.57Zm0,0,.13,2.57v.12c-2.09.11-4.18.14-6.27.2l-6.14,0H622c0-.52,0-2.78,0-3.3,4.12,0,8.57.16,12.63.35Z" style="fill:#263238"></path><ellipse cx="626.77" cy="448.49" rx="7.71" ry="12.23" style="fill:#fff"></ellipse><rect x="623.23" y="407.68" width="10.5" height="4.93" style="fill:#455a64"></rect><rect x="615.68" y="444.52" width="25.59" height="7.95" style="fill:#455a64"></rect><path d="M658.76,472.2H633.88c-1.17,0,0-37.58,0-41.77s7.2-15,7.2-17.4V393.76h10.49V413c0,2.37,7.19,13.23,7.19,17.4S659.94,472.2,658.76,472.2Z" style="fill:#fff"></path><path d="M658.76,472.2l-23,.09H634a.28.28,0,0,1-.12,0c-.2-.08-.2-.38-.26-.54-.74-9-.22-18-.19-27.06l.23-13.11a13.92,13.92,0,0,1,1.57-6.4c1.64-4.11,4.42-7.9,5.56-12.15,0-.8,0-2.07,0-2.87,0-5.43,0-11,0-16.39v-.35h.35l10.49,0h.31v.31c0,4.7,0,12.91-.07,17.51v1.25c0,2.06,1.32,3.82,2.15,5.69a98.16,98.16,0,0,1,4.26,9.07,12.19,12.19,0,0,1,.73,5l.33,20c.05,5,.1,10,0,15a37.4,37.4,0,0,1-.28,4.36c-.05.2,0,.45-.22.57Zm0,0c.18-.12.17-.38.22-.57a39.68,39.68,0,0,0,.24-4.36c.08-5,0-10-.1-15-.07-1.37-.47-21.85-.58-22.49a27.61,27.61,0,0,0-2.69-6.91l-2.28-4.46c-.83-1.85-2.22-3.75-2.24-5.88,0-.88,0-2.88,0-3.76,0-3.26-.05-11.65-.06-15l.31.3-10.49,0,.34-.34q0,6.56,0,13.11c0,1.57,0,4.22,0,5.74s-.78,2.76-1.32,4c-1.45,2.94-3.06,5.81-4.4,8.79-.87,2-1.72,4-1.57,6.19-.21,12.69-1,26.71-.45,39.32a5,5,0,0,0,.21,1.17c0,.05.17,0,.29,0l4.92,0,19.67.08Z" style="fill:#263238"></path><path d="M656.93,469.79H635.71c-1,0,0-35.41,0-39s7-14.51,7-16.53v-8.84H650v8.84c0,2,7,13,7,16.53S657.93,469.79,656.93,469.79Z" style="fill:#FF7C27"></path><g style="opacity:0.1"><path d="M655.77,443.69a1.11,1.11,0,1,0,.08,1.58A1.12,1.12,0,0,0,655.77,443.69Z"></path><path d="M649.49,418.28a1.11,1.11,0,1,0,.08,1.58A1.11,1.11,0,0,0,649.49,418.28Z"></path><path d="M655.92,439.8a.79.79,0,1,0,.05,1.12A.79.79,0,0,0,655.92,439.8Z"></path><path d="M644.63,465.16a.79.79,0,0,0-1.06,1.17.79.79,0,1,0,1.06-1.17Z"></path><path d="M639.32,432.39a.8.8,0,0,0-1.12.05.79.79,0,0,0,1.17,1.07A.8.8,0,0,0,639.32,432.39Z"></path><path d="M652.14,444.31a.56.56,0,1,0-.75.83.57.57,0,0,0,.79,0A.56.56,0,0,0,652.14,444.31Z"></path><path d="M642.39,463.35a.56.56,0,0,0-.76.83.56.56,0,0,0,.76-.83Z"></path></g><rect x="640.18" y="391.19" width="12.28" height="2.57" style="fill:#fff"></rect><path d="M652.46,391.19c-4.12.17-8.19.33-12.28.35l.35-.35,0,2.57-.38-.38c3.63,0,8.71.07,12.28.24l-.13.14.13-2.57Zm0,0,.13,2.57v.12c-2.09.1-4.19.14-6.28.19l-6.14.06h-.37c0-.51,0-2.78,0-3.3,4.12,0,8.56.17,12.62.36Z" style="fill:#263238"></path><rect x="640.18" y="388.21" width="12.28" height="2.57" style="fill:#fff"></rect><path d="M652.46,388.21c-4.12.17-8.19.33-12.28.35l.35-.35,0,2.57-.38-.38c3.63,0,8.71.07,12.28.25l-.13.13.13-2.57Zm0,0,.13,2.57v.12c-2.09.11-4.19.14-6.28.2l-6.14,0h-.37c0-.52,0-2.78,0-3.3,4.12,0,8.56.16,12.62.35Z" style="fill:#263238"></path><ellipse cx="644.61" cy="448.49" rx="7.71" ry="12.23" style="fill:#fff"></ellipse><rect x="641.08" y="407.68" width="10.5" height="4.93" style="fill:#455a64"></rect><rect x="633.53" y="444.52" width="25.59" height="7.95" style="fill:#455a64"></rect><path d="M676.61,472.2H651.73c-1.18,0,0-37.58,0-41.77s7.19-15,7.19-17.4V393.76h10.49V413c0,2.37,7.2,13.23,7.2,17.4S677.78,472.2,676.61,472.2Z" style="fill:#fff"></path><path d="M676.61,472.2l-23,.09h-1.84a.27.27,0,0,1-.12,0c-.21-.08-.21-.38-.26-.54-.74-9-.22-18-.2-27.06l.23-13.11a13.92,13.92,0,0,1,1.57-6.4c1.65-4.11,4.42-7.9,5.56-12.15,0-.8,0-2.07,0-2.87,0-5.43-.05-11,0-16.39v-.35h.35l10.49,0h.31v.31c0,4.7,0,12.91-.07,17.51v1.25c0,2.06,1.32,3.82,2.14,5.69a95.62,95.62,0,0,1,4.26,9.07,12.2,12.2,0,0,1,.74,5l.33,20c0,5,.1,10,0,15a39.71,39.71,0,0,1-.27,4.36c-.05.2-.05.45-.22.57Zm0,0c.17-.12.16-.38.21-.57a39.69,39.69,0,0,0,.25-4.36c.07-5,0-10-.11-15-.06-1.37-.47-21.85-.58-22.49a27.58,27.58,0,0,0-2.68-6.91l-2.28-4.46c-.84-1.85-2.22-3.75-2.24-5.88,0-.88,0-2.88,0-3.76,0-3.26,0-11.65-.06-15l.31.3-10.49,0,.35-.34q0,6.56,0,13.11c0,1.57,0,4.22,0,5.74s-.78,2.76-1.32,4c-1.44,2.94-3.06,5.81-4.39,8.79-.87,2-1.72,4-1.57,6.19-.21,12.69-1,26.71-.45,39.32a4.55,4.55,0,0,0,.2,1.17c0,.05.18,0,.29,0l4.92,0,19.68.08Z" style="fill:#263238"></path><path d="M674.77,469.79H653.56c-1,0,0-35.41,0-39s7-14.51,7-16.53v-8.84h7.26v8.84c0,2,7,13,7,16.53S675.78,469.79,674.77,469.79Z" style="fill:#FF7C27"></path><g style="opacity:0.1"><path d="M673.62,443.69a1.12,1.12,0,1,0,.07,1.58A1.12,1.12,0,0,0,673.62,443.69Z"></path><path d="M667.34,418.28a1.12,1.12,0,1,0,.07,1.58A1.11,1.11,0,0,0,667.34,418.28Z"></path><path d="M673.76,439.8A.79.79,0,0,0,672.7,441a.79.79,0,1,0,1.06-1.17Z"></path><path d="M662.48,465.16a.79.79,0,1,0,0,1.12A.79.79,0,0,0,662.48,465.16Z"></path><path d="M657.16,432.39a.8.8,0,0,0-1.12.05.8.8,0,1,0,1.12-.05Z"></path><path d="M670,444.31a.56.56,0,1,0,0,.79A.57.57,0,0,0,670,444.31Z"></path><path d="M660.23,463.35a.56.56,0,0,0-.75.83.57.57,0,0,0,.79,0A.56.56,0,0,0,660.23,463.35Z"></path></g><rect x="658.03" y="391.19" width="12.28" height="2.57" style="fill:#fff"></rect><path d="M670.31,391.19c-4.13.17-8.2.33-12.28.35l.35-.35,0,2.57-.37-.38c3.62,0,8.71.07,12.28.24l-.14.14.14-2.57Zm0,0,.13,2.57v.12c-2.09.1-4.18.14-6.27.19l-6.14.06h-.38c0-.51,0-2.78,0-3.3,4.12,0,8.57.17,12.63.36Z" style="fill:#263238"></path><rect x="658.03" y="388.21" width="12.28" height="2.57" style="fill:#fff"></rect><path d="M670.31,388.21c-4.13.17-8.2.33-12.28.35l.35-.35,0,2.57-.37-.38c3.62,0,8.71.07,12.28.25l-.14.13.14-2.57Zm0,0,.13,2.57v.12c-2.09.11-4.18.14-6.27.2l-6.14,0h-.38v-.38c0-.21,0-2.81,0-2.92,4.12,0,8.57.16,12.63.35Z" style="fill:#263238"></path><path d="M662.46,436.26c4.26,0,7.71,5.48,7.71,12.23s-3.45,12.23-7.71,12.23-7.72-5.47-7.72-12.23S658.2,436.26,662.46,436.26Z" style="fill:#fff"></path><rect x="658.92" y="407.68" width="10.5" height="4.93" style="fill:#455a64"></rect><rect x="651.37" y="444.52" width="25.59" height="7.95" style="fill:#455a64"></rect><path d="M694.45,472.2H669.57c-1.17,0,0-37.58,0-41.77s7.2-15,7.2-17.4V393.76h10.49V413c0,2.37,7.19,13.23,7.19,17.4S695.63,472.2,694.45,472.2Z" style="fill:#fff"></path><path d="M694.45,472.2l-23,.09h-1.84a.31.31,0,0,1-.13,0c-.2-.08-.2-.38-.26-.54-.74-9-.21-18-.19-27.06l.23-13.11a13.92,13.92,0,0,1,1.57-6.4c1.64-4.11,4.42-7.9,5.56-12.15,0-.8,0-2.07,0-2.87,0-5.43,0-11,0-16.39v-.35h.35l10.49,0h.31v.31c0,4.7,0,12.91-.07,17.51v1.25c0,2.06,1.33,3.82,2.15,5.69a98.16,98.16,0,0,1,4.26,9.07,12,12,0,0,1,.73,5l.33,20c0,5,.1,10,0,15a37.4,37.4,0,0,1-.28,4.36c0,.2,0,.45-.22.57Zm0,0c.18-.12.17-.38.22-.57a39.68,39.68,0,0,0,.24-4.36c.08-5,0-10-.1-15-.07-1.37-.47-21.85-.58-22.49a27.61,27.61,0,0,0-2.69-6.91l-2.28-4.46c-.83-1.85-2.22-3.75-2.24-5.88,0-.88,0-2.88,0-3.76,0-3.26,0-11.65-.06-15l.31.3-10.49,0,.35-.34c0,4.37,0,8.74,0,13.11,0,1.57,0,4.22,0,5.74s-.78,2.76-1.32,4c-1.45,2.94-3.06,5.81-4.4,8.79-.87,2-1.72,4-1.57,6.19-.21,12.69-1,26.71-.45,39.32a5,5,0,0,0,.21,1.17c0,.05.17,0,.29,0l4.92,0,19.67.08Z" style="fill:#263238"></path><path d="M692.62,469.79H671.41c-1,0,0-35.41,0-39s7-14.51,7-16.53v-8.84h7.26v8.84c0,2,7,13,7,16.53S693.62,469.79,692.62,469.79Z" style="fill:#FF7C27"></path><g style="opacity:0.1"><path d="M691.46,443.69a1.11,1.11,0,1,0,.08,1.58A1.12,1.12,0,0,0,691.46,443.69Z"></path><path d="M685.18,418.28a1.11,1.11,0,1,0,.08,1.58A1.11,1.11,0,0,0,685.18,418.28Z"></path><path d="M691.61,439.8a.79.79,0,1,0,0,1.12A.79.79,0,0,0,691.61,439.8Z"></path><path d="M680.32,465.16a.79.79,0,0,0-1.06,1.17.79.79,0,1,0,1.06-1.17Z"></path><path d="M675,432.39a.79.79,0,0,0-1.07,1.17.79.79,0,0,0,1.12-.05A.8.8,0,0,0,675,432.39Z"></path><path d="M687.83,444.31a.56.56,0,1,0-.75.83.57.57,0,0,0,.79,0A.56.56,0,0,0,687.83,444.31Z"></path><path d="M678.08,463.35a.56.56,0,0,0-.79,0,.56.56,0,1,0,.82.75A.56.56,0,0,0,678.08,463.35Z"></path></g><rect x="675.87" y="391.19" width="12.28" height="2.57" style="fill:#fff"></rect><path d="M688.15,391.19c-4.12.17-8.19.33-12.28.35l.35-.35,0,2.57-.38-.38c3.63,0,8.71.07,12.28.24l-.13.14.13-2.57Zm0,0,.13,2.57v.12c-2.09.1-4.19.14-6.28.19l-6.14.06h-.37c0-.51,0-2.78,0-3.3,4.12,0,8.56.17,12.62.36Z" style="fill:#263238"></path><rect x="675.87" y="388.21" width="12.28" height="2.57" style="fill:#fff"></rect><path d="M688.15,388.21c-4.12.17-8.19.33-12.28.35l.35-.35,0,2.57-.38-.38c3.63,0,8.71.07,12.28.25l-.13.13.13-2.57Zm0,0,.13,2.57v.12c-2.09.11-4.19.14-6.28.2l-6.14,0h-.37c0-.52,0-2.78,0-3.3,4.12,0,8.56.16,12.62.35Z" style="fill:#263238"></path><ellipse cx="680.3" cy="448.49" rx="7.71" ry="12.23" style="fill:#fff"></ellipse><rect x="676.77" y="407.68" width="10.5" height="4.93" style="fill:#455a64"></rect><rect x="669.22" y="444.52" width="25.59" height="7.95" style="fill:#455a64"></rect><rect x="591.93" y="412.6" width="105.71" height="65.24" style="fill:#FF7C27"></rect><rect x="656.16" y="412.6" width="41.47" height="65.25" style="opacity:0.2"></rect><path d="M694.78,474.54q-4.62-7.44-9.13-14.93l-9-15-8.88-15.07Q663.35,422,659,414.39q4.61,7.44,9.13,14.93l9,15L686,459.39Q690.44,467,694.78,474.54Z" style="fill:#FF7C27"></path><path d="M694.78,414.39Q690.45,422,686,429.53l-8.88,15.07-9,15q-4.51,7.49-9.13,14.93,4.34-7.59,8.75-15.15l8.88-15.07,9-15Q690.17,421.82,694.78,414.39Z" style="fill:#FF7C27"></path><rect x="610.99" y="462.66" width="0.68" height="9.54" transform="translate(1222.65 934.86) rotate(180)" style="fill:#263238"></rect><rect x="609.36" y="462.66" width="0.68" height="9.54" transform="translate(1219.4 934.86) rotate(180)" style="fill:#263238"></rect><rect x="607.74" y="462.66" width="0.68" height="9.54" transform="translate(1216.16 934.86) rotate(180)" style="fill:#263238"></rect><rect x="606.12" y="462.66" width="0.68" height="9.54" transform="translate(1212.91 934.86) rotate(180)" style="fill:#263238"></rect><rect x="604.49" y="462.66" width="0.68" height="9.54" transform="translate(1209.66 934.86) rotate(180)" style="fill:#263238"></rect><rect x="602.87" y="462.66" width="0.68" height="9.54" transform="translate(1206.41 934.86) rotate(180)" style="fill:#263238"></rect><rect x="601.25" y="462.66" width="0.68" height="9.54" transform="translate(1203.17 934.86) rotate(180)" style="fill:#263238"></rect><rect x="599.62" y="462.66" width="0.68" height="9.54" transform="translate(1199.92 934.86) rotate(180)" style="fill:#263238"></rect><rect x="598" y="462.66" width="0.68" height="9.54" transform="translate(1196.67 934.86) rotate(180)" style="fill:#263238"></rect><path d="M618.3,471.47l-2.6.73h6.11l-2.61-.74V468c1.87-.25,2.61-2.08,2.61-5.3H615.7c0,3.21.74,5,2.6,5.3Z" style="fill:#263238"></path><polygon points="623.23 467.53 624.83 467.53 624.83 472.2 628.91 472.2 628.91 467.53 630.51 467.53 626.87 462.66 623.23 467.53" style="fill:#263238"></polygon><polygon points="591.92 477.85 591.92 471.89 656.16 460.86 656.16 477.84 591.92 477.85" style="opacity:0.1"></polygon><polygon points="709.95 400.6 668.48 400.6 656.16 412.6 697.64 412.6 709.95 400.6" style="fill:#FF7C27"></polygon><polygon points="709.95 400.6 668.48 400.6 656.16 412.6 697.64 412.6 709.95 400.6" style="opacity:0.1"></polygon></g></svg>
